<?xml version="1.0" encoding="UTF-8" standalone="no"?>
<svg
   width="1024"
   height="1024"
   version="1.1"
   id="svg2"
   sodipodi:docname="mylogo.svg"
   inkscape:version="1.4 (e7c3feb1, 2024-10-09)"
   inkscape:export-filename="mylogo.jpg"
   inkscape:export-xdpi="96"
   inkscape:export-ydpi="96"
   xmlns:inkscape="http://www.inkscape.org/namespaces/inkscape"
   xmlns:sodipodi="http://sodipodi.sourceforge.net/DTD/sodipodi-0.dtd"
   xmlns="http://www.w3.org/2000/svg"
   xmlns:svg="http://www.w3.org/2000/svg">
  <defs
     id="defs2" />
  <sodipodi:namedview
     id="namedview2"
     pagecolor="#ffffff"
     bordercolor="#000000"
     borderopacity="0.25"
     inkscape:showpageshadow="2"
     inkscape:pageopacity="0.0"
     inkscape:pagecheckerboard="0"
     inkscape:deskcolor="#d1d1d1"
     inkscape:zoom="0.98535156"
     inkscape:cx="511.49257"
     inkscape:cy="512"
     inkscape:window-width="3440"
     inkscape:window-height="1330"
     inkscape:window-x="2493"
     inkscape:window-y="87"
     inkscape:window-maximized="0"
     inkscape:current-layer="g2" />
  <g
     id="g1">
    <title
       id="title1">background</title>
    <rect
       x="-1"
       y="-1"
       width="1026"
       height="1026"
       id="canvas_background"
       fill="none" />
  </g>
  <g
     id="g2"
     transform="translate(-22.11,-20.52)">
    <title
       id="title2">Layer 1</title>
    <path
       fill="#ffffff"
       d="m 314.96,154.38 q 3.04,0.12 6.06,0.32 3.07,0.2 5.88,1.23 4.24,1.54 8.38,3.35 l 9.17,7.28 c 1.49,1.34 2.8,2.78 4.4,4 q 7.14,5.42 11.78,12.98 1.68,2.73 3.63,8.13 1.53,4.22 3.18,8.42 0.53,3.02 1,6.09 0.47,3.15 0.42,6.2 -0.09,5.58 -0.22,11.16 -0.07,2.79 0.56,3.74 2.07,3.16 7.33,7.84 7.96,3.87 7.34,13.49 -0.01,0.02 -0.03,0.07 -0.06,0.2 0.3,0.34 10.93,11.97 16.66,23.73 5.57,11.45 6.19,25.51 0.13,2.85 0.18,8.75 c 0.17,21.28 -9.52,41.34 -24.56,56.33 q -9.32,9.3 -20.96,14.33 -13.83,5.97 -29.08,7.12 -0.52,0.04 -0.39,0.54 1.11,4.4 4.8,6.99 c 8.23,5.77 15.44,10.54 21.13,18.64 2.2,3.14 4.01,7.91 6.22,11.02 q 17.42,24.59 44.14,38.61 0.77,0.4 1.33,-0.27 10.34,-12.26 25.75,-17.3 4.52,-1.48 8.92,-1.42 a 1.1,1.1 0 0 0 1.02,-0.66 q 10.07,-23.33 34,-31.16 2.4,-0.79 4.4,-0.97 2.19,-0.2 4.49,-0.72 1.88,-0.42 6.74,0.14 5.49,0.63 8.33,0.9 a 3.71,3.69 -60.6 0 0 2.55,-0.72 q 6.97,-5.23 12.97,-9.29 c 1.32,-0.89 3.03,-1.52 4.17,-2.17 q 0.64,-0.36 0.71,-0.68 l 1.12,-4.74 q 0.14,-0.57 -0.44,-0.68 -1.84,-0.32 -4.43,-0.95 c -6.2,-1.51 -13.35,-6.39 -13.82,-13.09 q -0.49,-7 -0.35,-23.69 0,-0.42 -0.3,-0.71 -0.72,-0.7 -1.61,-1.39 c -7.22,-5.63 -6.07,-13.56 -1.99,-20.73 q 4.32,-7.6 5.99,-10.44 a 0.77,0.77 0 0 0 0.02,-0.75 q -1.25,-2.37 -4.38,-6.95 c -4.51,-6.61 -5,-14.03 -4.1,-21.97 q 0.68,-6.03 4.64,-13.22 9.78,-17.72 28.29,-21.62 0.07,-0.02 8.83,-1.83 0.12,-0.03 6.04,-1.49 4.66,-1.14 10.49,-1.09 2.52,0.02 4.43,1.56 2.86,2.3 4.3,3.91 0.29,0.32 0.67,0.11 l 1.47,-0.85 q 0.46,-0.27 1,-0.36 11.83,-2.04 22.96,2.52 a 2.95,2.94 37.3 0 0 2.91,-0.39 c 2.55,-1.94 5.17,-3.57 8.39,-4.48 q 5.16,-1.44 9.27,-3.03 a 1.34,1.33 -12.7 0 1 1.81,1.14 c 0.46,5.78 0.71,10.42 1.93,15.22 q 1.26,4.98 1.64,9.95 0.04,0.55 0.56,0.75 1.27,0.46 3.03,0.13 10.31,-1.94 20.82,-6.17 1.82,-0.73 1.93,1.22 1.34,23.05 1.38,23.64 0.55,7.9 -2.29,14.25 a 1.23,1.22 23.5 0 0 0.65,1.63 c 1.25,0.54 1.93,1.23 2.14,2.76 1.02,7.29 1.61,15.5 0.46,22.9 -1.73,11.18 -8.63,17.03 -19.61,19.72 q -0.5,0.12 -0.52,0.63 c -0.06,1.09 0.18,2.41 0.15,3.28 -0.34,9.2 -8.13,13.29 -15.83,16.35 q -0.48,0.19 -0.42,0.7 0.44,3.41 0.52,4.32 0.19,2.44 1.47,3.64 2.33,2.19 4.16,3.31 7.89,4.82 23.44,14.68 c 1.35,0.86 2.34,1.41 4.06,1.54 14.61,1.11 28.2,9.15 37.05,20.56 q 15.66,20.18 11.39,47.27 -0.39,2.49 1.15,4.78 5.54,8.28 9.2,16.51 1.3,2.92 2.5,7.56 1.01,3.92 2,7.84 -0.1,2.08 0.58,3.91 0.8,6.23 2.79,9.14 2.39,3.51 4.67,7.08 c 2.58,4.05 4.7,9.03 7.3,13.55 l 2.4,6.99 q 2.25,8.16 2.84,16.6 c 0.34,4.2 1.45,8.68 1.49,12.52 q 0.03,2.99 0.51,5.94 0.66,4.06 3.77,5.14 4.8,1.66 9.38,3.4 l 13.15,7.11 c 7.31,3.28 12.9,6.65 16.52,12.88 q 3.37,5.79 0.52,11.66 -2.81,5.77 -7.07,8.47 -5.46,3.45 -12.15,5.39 a 0.88,0.88 0 0 0 -0.6,1.06 q 2.36,9.37 -0.76,18.29 -2.54,7.25 -4.8,11.2 -0.94,1.65 -2.54,3.49 -1.88,2.17 -2.92,3.23 -5.24,5.35 -12.9,4.79 -0.5,-0.04 -0.93,0.2 -9.43,5.29 -20.51,5.2 -4.66,-0.04 -9.44,-1.83 -13.6,-5.1 -25.05,-13.94 -4.02,-3.76 -6.87,-8.57 -4.1,-6 -1.38,-11.6 4.37,-9 14.42,-9.62 a 1.48,1.47 -6.8 0 0 1.36,-1.72 c -0.43,-2.5 -1.13,-5.08 -1.31,-7.67 q -0.55,-7.95 -0.76,-11.4 c -0.29,-5.04 -2.93,-8.14 -5.5,-11.99 q -1.34,-2 -2.43,-4.21 -2.77,-5.62 -6,-10.96 l -10.25,-20.33 q -1.22,-7.53 -2.43,-15.1 -0.89,-5.51 -1.71,-7.46 -1.47,-3.46 -3.89,-6.8 a 0.45,0.45 0 0 0 -0.8,0.14 q -1.17,4.4 -3.44,8.36 -4.16,7.26 -13.99,22.74 c -1.03,1.62 -3.2,6.4 -1.37,8.04 1.27,1.12 2.91,1.64 4.8,1.28 q 1.28,-0.25 2.45,-0.46 2.11,1.61 2.34,3.86 -2.83,1.95 -5.65,3.95 -1.2,0.85 -2.64,1.47 -1.36,0.59 -2.76,1.24 -3.09,1.29 -6.21,2.68 -2.94,1.31 -5.93,2.04 -3.03,0.74 -6.1,1.51 1.06,-2.31 1.07,-4.42 0.05,-10.59 1.09,-18.94 0.96,-7.74 5.13,-14.04 c 3.72,-5.63 9.72,-13.69 13.21,-20.04 q 8.02,-14.56 12.51,-30.64 0.51,-1.85 0.69,-4.72 0.24,-3.95 0.43,-4.78 0.13,-0.56 0.56,0.08 0.23,0.34 2.44,6.49 1.4,3.9 4.59,8.16 9.41,12.6 16.16,22.32 2.46,3.54 2.47,5.6 0.03,3.61 -0.12,7.51 -0.12,3.25 2.03,10.18 c 2.23,7.21 4.87,13.84 9.04,21.14 q 10.77,18.85 14.66,25.52 1.6,2.75 1.24,4.43 -1.29,6.1 -1.04,12.38 c 0.17,4.11 1.59,9.05 2.3,13.25 0.82,4.88 1.68,7.65 -1.35,10.99 a 1.75,1.74 19.9 0 1 -1.22,0.57 l -11.48,0.49 q -0.56,0.03 -1,0.38 c -1.87,1.54 -3.24,4.99 -0.91,6.95 5.19,4.4 11.74,3.72 17.93,2.68 4.84,-0.81 8.65,-3.2 11.03,-7.45 a 1.98,1.96 -74.7 0 1 1.75,-1.01 l 0.52,0.01 q 1.56,0.02 0.99,1.47 -1.28,3.31 -3.66,5.56 -5,4.71 -7.78,7.65 a 0.92,0.91 -53.8 0 0 0.22,1.42 c 2.53,1.43 5.09,3.85 8.05,3.16 q 12.77,-2.94 15.51,-15.05 0.18,-0.84 0.61,-4.96 0.35,-3.39 0.9,-4.96 0.62,-1.79 1.32,-0.03 1.06,2.67 1.58,5.79 0.94,5.65 1.22,11.63 a 1.12,1.12 0 0 0 1.82,0.82 q 9.05,-7.33 8.86,-18.64 -0.05,-3.26 -1.22,-6.07 -1.48,-3.59 -4.2,-10.68 -1.27,-3.29 -1.15,-6.46 a 0.5,0.5 0 0 1 0.46,-0.49 q 3.99,-0.31 8.51,0.87 3.62,0.94 5.22,0.96 c 4.69,0.07 9.36,-1.05 10.63,-6.42 0.65,-2.74 -2.24,-3.96 -4.54,-4.88 q -2.15,-0.86 -11.31,-3.86 -4.51,-1.47 -8.93,-3.45 c -7.57,-3.39 -10.56,-5 -16.61,-6.19 a 1.83,1.8 -1.7 0 1 -1.41,-1.31 q -1.78,-6.63 -2.46,-12.42 -1.84,-15.64 -2.56,-21.7 -2.54,-21.15 -15.75,-36.78 -3.25,-3.85 -3.9,-5.87 -1.12,-3.46 -1.55,-7.11 -1.08,-9.09 -2.69,-14.53 -3.45,-11.64 -10.35,-20.5 c -0.68,-0.87 -1.19,-2.05 -1.12,-2.96 q 0.88,-11.91 0.25,-19.76 c -0.76,-9.56 -5.51,-20.43 -12.61,-26.93 q -8.27,-7.58 -20.58,-8.87 -3.79,-0.4 -9.37,-0.32 -1.24,0.02 -3,-0.59 a 1.39,1.33 83.1 0 1 -0.73,-0.6 q -2.28,-3.99 -4.13,-5.47 -8.24,-6.57 -21.43,-14.49 -8.92,-5.35 -10.89,-15.55 c -0.84,-4.35 -1.34,-12.09 -0.62,-16.63 q 1.09,-6.79 7.73,-6.31 4.51,0.32 6.59,0.35 2.33,0.04 3.68,-1.44 2.03,-2.24 2.78,-5.45 a 1.21,1.19 -54.1 0 0 -0.13,-0.88 c -1.99,-3.37 -4.56,-6.4 -5.03,-10.33 a 0.8,0.79 1.1 0 1 0.92,-0.88 q 3.52,0.58 6.72,0.56 c 9.56,-0.06 15.63,-8.37 16.42,-17.17 q 0.13,-1.43 -0.55,-2.34 a 0.64,0.64 0 0 0 -1.05,0.03 q -2.5,3.9 -7.37,3.22 -5.17,-0.72 -10.92,-6.2 -1.45,-1.39 -1.76,-3.09 a 0.84,0.83 -10.1 0 1 0.69,-0.98 q 3.85,-0.62 6.26,-1.41 c 8.98,-2.94 13.96,-12.66 13.77,-21.52 -0.05,-2.41 0.01,-4.21 -1.04,-5.73 a 0.85,0.85 0 0 0 -1.42,0.03 q -4.83,7.84 -13.8,7.67 -2.51,-0.04 -5.82,-1.11 -4.47,-1.43 -5.55,-2.19 -7.75,-5.45 -17,-4.9 a 0.67,0.67 0 0 1 -0.6,-1.04 c 1.87,-2.94 4.92,-4.2 8.52,-6.13 4.58,-2.46 9.67,-7.75 8.76,-13.38 q -0.19,-1.17 -1.22,-0.57 -5.31,3.12 -12.43,2.19 -7.83,-1.03 -13.65,-0.98 c -2.22,0.02 -3.53,0.04 -5.16,1.78 -1.31,1.4 -3.69,4.46 -5.78,5.91 -4.85,3.34 -9.36,2.61 -14.8,1.75 q -1.88,-0.3 -1.23,-2.09 0.5,-1.38 3.87,-8.69 0.61,-1.33 0.68,-2.21 0.19,-2.32 -1.58,-0.81 -2.68,2.27 -5.14,3.37 c -3.78,1.68 -9.99,1.82 -13.14,2.91 q -17.66,6.1 -18.64,24.04 c -0.28,5.18 1.24,9.66 4.91,12.92 1.66,1.47 3.96,2.4 6.29,3.42 a 0.75,0.75 0 0 1 0.44,0.79 q -0.79,5.15 -2.32,8.62 -4.21,9.52 -10.91,19.25 -1.15,1.67 0.45,2.96 2.83,2.27 5.72,3.05 a 0.72,0.71 8.4 0 1 0.53,0.7 c -0.05,2.47 -0.5,6.24 -0.04,8.82 q 0.66,3.62 0.69,3.97 0.44,5.83 -0.22,11.65 -0.11,0.96 0.08,1.6 c 0.76,2.6 6.24,4.14 8.85,4.44 q 0.52,0.06 10.6,0.48 a 0.58,0.58 0 0 1 0.55,0.52 l 3.4,36.03 a 0.74,0.74 0 0 1 -1.13,0.7 q -3.31,-2.06 -4.13,-4.94 -0.44,-1.53 -1.74,-0.62 -6.48,4.51 -16.01,10.48 -0.66,0.41 -0.96,1.01 -0.27,0.56 0.3,0.81 6.85,3.1 9.49,4.23 6.49,2.81 9.16,4.85 5.69,4.34 9.3,10.68 0.26,0.46 -0.22,0.68 c -2.77,1.26 -6.18,0.6 -10.43,-0.19 q -8.17,-1.51 -23.68,-5.02 -6.87,-1.56 -13.44,-5.29 -0.94,-0.53 -1.11,-1.03 -0.27,-0.79 -0.52,-1.44 -0.49,-1.27 -1.85,-1.44 -18.15,-2.29 -29.55,10.43 c -3.55,3.96 -7.1,8.07 -7.72,13.4 a 1.17,1.16 -89.6 0 0 1.27,1.29 l 1.05,-0.09 a 0.4,0.4 0 0 1 0.31,0.7 q -2.32,2.04 -5.23,2.56 -1.39,0.25 -9.73,1.59 -9.94,1.59 -17.72,7.74 -9.47,7.47 -16.74,17.76 -0.84,1.18 -2.04,0.38 -11.53,-7.69 -25.24,-16.63 -5.98,-3.9 -9.93,-7.36 -6.22,-5.44 -9.33,-8.73 -7.59,-8.05 -17.36,-21.59 -2.29,-3.17 -2.73,-4.45 c -1.12,-3.23 -2.02,-6.51 -4.14,-8.6 q -2.15,-2.13 -5.37,-3.39 -6.84,-2.67 -9.06,-3.56 -0.47,-0.19 -0.76,-0.61 -1.59,-2.27 -6.44,-9.53 -2.77,-4.15 -8.01,-9 -2.05,-1.89 -4.86,-3.17 -2.3,-1.04 -4.12,-0.01 c -4.39,2.48 -1.99,8.34 0.18,11.64 q 3.13,4.81 6.22,9.16 0.91,1.3 -0.48,1.65 -0.41,0.1 -1.75,-0.18 c -6.38,-1.35 -12.36,-2.25 -14.41,-9.1 q -0.36,-1.24 -3.23,-11.44 -1.54,-5.45 -7.28,-6.24 -0.5,-0.07 -0.93,0.2 -2.31,1.44 -2.2,5.21 0.04,1.63 0.29,7.04 0.08,1.9 -0.81,0.22 -4.24,-8.02 -4.86,-9.33 -2.46,-5.19 -7.72,-6.31 -1.17,-0.25 -2.52,0.95 c -1.57,1.4 -2.66,2.01 -2.03,4.19 q 1.2,4.2 3.18,8.1 6.2,12.26 10,18.02 3.56,5.41 8.22,7.81 4.6,2.38 13.25,6.25 5.26,2.35 13.58,4.92 11.11,3.43 15.5,5.33 5.27,2.27 8.94,8.38 8.19,13.62 20.04,34.06 7.49,12.93 13.04,19.73 11.01,13.52 25.9,24.77 5.1,3.87 11.68,1.61 13.23,-4.53 33.34,-9.88 9.71,-2.58 14.06,-4.29 6.84,-2.69 13.26,-6.46 7.63,-4.47 7.89,-4.61 a 0.65,0.63 -22.4 0 0 0.33,-0.76 c -3.26,-10.66 -3.78,-21.17 -1.08,-32.08 q 0.47,-1.9 1.09,-0.05 4.06,12 12.31,21.79 5.99,7.1 16.71,10.07 c 3.72,1.03 10.07,1.19 13.48,1.32 a 1.56,1.55 4.5 0 1 1.48,1.73 c -0.45,3.87 -3.91,5.77 -7.16,6.95 q -9.78,3.55 -19.28,0.94 a 0.47,0.47 0 0 0 -0.59,0.46 q 0.09,10.09 2.03,21.15 c 1.86,10.62 1.45,21.29 1.49,31.96 q 0.03,5.61 -0.73,8.15 -4.74,16.01 -12.32,30.75 -0.23,0.45 -0.71,0.61 -1.48,0.51 -2.79,-0.78 -0.72,-0.72 -7.05,-6.49 -1.47,-1.34 -1.96,-3.1 -0.39,-1.4 0.41,-3.41 5.29,-13.15 6.02,-14.93 c 1.8,-4.36 2.39,-8.12 2.58,-12.04 q 0.46,-9.5 -0.41,-20.72 -0.52,-6.62 -1.62,-11.6 -0.87,-3.89 -2.31,-11.53 -0.12,-0.63 -0.5,-0.11 -1.97,2.66 -5,4.18 -12.63,6.35 -26.47,10.31 -5.76,1.64 -12.66,3.21 -0.11,0.03 -12.43,3.53 -7.11,2.02 -13.19,2.84 c -5.86,0.8 -12.19,-1.96 -17.29,-5.32 q -6.58,-4.33 -15.24,-11.6 -5.05,-4.23 -8.85,-8.33 -5.63,-6.06 -8.18,-9.65 -7.69,-10.84 -9.56,-13.8 -8.24,-13.09 -21.56,-36.39 -1.55,-2.72 -2.23,-4.54 -0.43,-1.13 -1.26,-1.62 -1.43,-0.86 -1.97,-1.03 -18.75,-5.55 -34.44,-12.48 -8.66,-3.82 -17,-10.99 -1.48,-1.28 -2.79,-3.03 -0.44,-0.59 -2.53,-3.35 a 0.49,0.49 0 0 0 -0.86,0.16 l -3.24,10.88 q -2.95,-5.51 -2.71,-13.37 0.09,-5.18 -0.33,-10.44 -0.22,-2.74 -1.54,-5.52 -2.58,-5.45 -4.7,-10.83 -1,-4.87 -0.57,-8.42 0.34,-2.74 2.5,-5.69 l 1.81,-2.23 q 2.54,-2.56 5.07,-4.98 4.04,-3.89 9.29,-5.55 a 0.74,0.74 0 0 0 0.39,-1.11 l -11.65,-17.49 -0.85,-2.2 q -3.84,-6.63 -5.73,-12.14 -2.95,-8.59 -4.22,-19.05 -1.19,-11.97 0.45,-20.02 1.08,-5.32 1.93,-9.57 1.07,-3.39 2,-6.35 1.02,-3.23 2.34,-6.24 3.11,-7.08 7.45,-17.45 c 1.43,-3.41 4.8,-5.39 2.78,-9.56 q -0.59,-1.22 -1.28,-2.35 -0.45,-0.73 -0.37,-2.58 0.7,-17.78 16.52,-26.28 3.45,-1.86 8.72,-3.92 2.56,-1.01 5.6,-1 5.34,0 6.98,-0.01 1.67,-0.02 4.56,-2.24 4.16,-3.18 8.04,-7.2 3.28,-3.4 0.38,-7.31 -4.71,-6.35 -5.7,-7.59 c -2.56,-3.21 -6.02,-5.92 -8.99,-9.03 q -2.57,-5.46 0.49,-10.74 0.26,-1.07 0.98,-1.8 2.21,-3.74 6.86,-4.17 6.29,-0.58 10.71,-0.46 z m -19.19,136.05 q -11.63,-0.7 -15.73,-13.51 -1.89,-10.8 0.51,-21.71 0.38,-1.71 0.4,-3.37 a 0.28,0.28 0 0 0 -0.45,-0.22 c -6.27,4.89 -9.98,10.98 -13.7,18.64 q -1.8,3.7 -2.62,7.86 -4.57,15.15 -3.16,31.14 0.72,8.14 3.43,15.88 l 5.57,11.94 7.56,10.55 q 10.65,14.1 28.68,17.59 2.64,1.64 6.37,1.88 11.51,2.31 19.1,1.11 5.27,-0.83 10.58,-1.32 1.72,-0.16 4.73,-1.2 10.81,-2.37 19.28,-9.74 9.66,-7.93 15.69,-19.18 6.35,-10.45 8.04,-22.53 1.42,-9.45 0.15,-19.06 -0.96,-7.17 -2.94,-12.18 -5.69,-14.4 -17.45,-27.79 -3.74,-4.26 -7.38,-9.75 -0.98,-1.49 -2.42,-0.53 a 1.67,1.64 -7.9 0 0 -0.67,0.87 q -1.38,4.01 -0.05,9.37 1.55,6.2 2.76,10.37 1.59,5.43 1,8.19 -1.96,9.22 -11.12,4.54 -7.7,-5.69 -9.83,-14.47 -2.39,-9.88 0.64,-21.35 0.12,-0.44 4.18,-10.1 4.7,-11.16 4.51,-23.11 -0.13,-8.66 -2.5,-14.07 -2.78,-6.34 -8.16,-12.54 -6.64,-7.64 -16.12,-10.77 -2.61,-0.87 -7.34,-1.06 -0.61,-0.02 -0.32,0.52 1.51,2.76 5.05,6.26 3.93,3.86 5.18,5.83 c 3.49,5.47 4.56,13.07 2.09,19.19 -2.83,7.01 -9.06,12.11 -15.19,17.52 q -11.42,10.07 -15.51,25.81 -1.58,6.05 -0.41,15.22 0.3,2.41 1.98,6.34 0.54,1.28 2.41,6.11 2.16,5.6 1.7,8.83 -0.91,6.27 -8.52,8 z m -11.2,-55.65 q 0.77,-0.33 1.19,-1.79 0.87,-2.98 4.08,-11.08 0.35,-0.88 0.34,-1.94 a 1.01,1.01 0 0 0 -1.54,-0.85 q -3.28,2.03 -10.55,7.64 -2.18,1.68 -2.33,3.47 -0.28,3.31 1.84,4.45 3.24,1.74 6.97,0.1 z"
       id="svg_956" />
    <path
       stroke="null"
       fill="#ed3a06"
       d="m 349.93,277.16174 q -10.84936,0.40332 -19.82781,1.82502 -16.11491,2.54091 -30.78325,11.17194 -0.43397,0.25207 -0.90652,0.10083 L 295.77,289.42264 q 7.33899,-1.74435 8.21658,-8.06638 0.44362,-3.2568 -1.63946,-8.90326 -1.8034,-4.87008 -2.32417,-6.1607 -1.62017,-3.96261 -1.90949,-6.39261 -1.12833,-9.24609 0.3954,-15.34629 3.94434,-15.8706 14.95765,-26.02416 c 5.91169,-5.45489 11.91983,-10.59721 14.64904,-17.66537 2.38204,-6.17078 1.35015,-13.83384 -2.01557,-19.34923 q -1.20548,-1.98635 -4.99552,-5.87838 -3.41393,-3.52904 -4.87016,-6.31194 -0.27967,-0.54448 0.3086,-0.52431 4.56156,0.19157 7.07861,1.06879 9.14239,3.15597 15.54592,10.85937 5.18841,6.25144 7.86941,12.64405 2.28559,5.45489 2.41097,14.18674 0.18323,12.04916 -4.34939,23.30176 -3.91542,9.74015 -4.03114,10.18381 -2.9221,11.56517 -0.61721,21.52715 2.05414,8.85285 9.47993,14.59006 z"
       id="svg_972" />
    <path
       fill="#171b1d"
       d="m 541.78,199.35 c 3.25333,-0.0867 6.49,-0.14 9.71,-0.16 1.52,-0.0133 2.56667,0.31333 3.14,0.98 0.21333,0.24667 0.48,0.36667 0.8,0.36 7.51333,-0.17333 15.06667,0.12667 22.66,0.9 8.64,0.92667 17.28333,2.37667 25.93,4.35 16.25333,3.36 32.06,8.21333 47.42,14.56 5.62,2.32667 11.49667,4.7 17.63,7.12 13.45333,6.46667 26.51667,13.94333 39.19,22.43 3.36667,2.25333 7.85,5.53667 13.45,9.85 4.40667,3.39333 8.85,6.73667 13.33,10.03 0.28,0.33333 0.58,0.58333 0.9,0.75 1.78,1.51333 3.5,3.05667 5.16,4.63 7.98667,7.56667 14.35667,13.82667 19.11,18.78 4.28,4.46667 7.94667,8.55333 11,12.26 3.84,4.65333 7.18,9.01 10.02,13.07 3.66667,5.22 8.31667,12.14667 13.95,20.78 7.11333,10.95333 12.55667,20.43 16.33,28.43 3.22,6.82667 7.44667,17.17667 12.68,31.05 1.32,3.42 2.16,5.76 2.52,7.02 4.67333,16.34 8.07667,32.92333 10.21,49.75 l 0.47,3.68 1.54,13.96 0.36,32.11 -2.6,26.72 -4.7,26.53 c -3.29333,14.98 -7.68667,29.63 -13.18,43.95 -2.55,6.66 -5.68,13.39 -8.66,20.05 -2.44667,5.46667 -4.89333,10.34 -7.34,14.62 -5.84,10.19333 -12.24333,20.05 -19.21,29.57 -10.98667,15.52667 -22.94,29.11 -35.86,40.75 -12.13333,10.93333 -26.05333,21.61667 -41.76,32.05 -14.81333,9.40667 -28.52,17.01 -41.12,22.81 -8.95333,4.12 -20.06667,8.34667 -33.34,12.68 -10.24667,2.88667 -18.1,4.86 -23.56,5.92 -5.75333,1.12 -16.39667,2.73 -31.93,4.83 -10.02,1.05333 -20.03667,1.56 -30.05,1.52 -7.68,-0.08 -12.90333,-0.2 -15.67,-0.36 -1.11,-0.07 -2.34,-0.86 -3.61,-0.9 -12.38,-0.34667 -24.42667,-1.50333 -36.14,-3.47 -1.44667,-0.24 -3.62333,-0.69667 -6.53,-1.37 -2.17333,-0.50667 -4.34667,-0.95333 -6.52,-1.34 -14.88,-3.44 -29.40333,-8.07667 -43.57,-13.91 -24.76667,-10.6 -47.93333,-24.2 -69.5,-40.8 l -18.88,-16.54 c -6.98,-6.73333 -13.72333,-13.73333 -20.23,-21 -3.4,-3.8 -7.11,-8.34667 -11.13,-13.64 -3.55333,-4.68 -7.10333,-9.36 -10.65,-14.04 l -20.5,-33.44 c -8.17333,-15.58667 -14.91333,-31.75333 -20.22,-48.5 -3.07333,-9.70667 -5.14,-17.66 -6.2,-23.86 -1.43333,-8.36667 -2.78333,-20.18667 -4.05,-35.46 -0.33333,-4.04667 -0.53333,-8.12333 -0.6,-12.23 l -0.07,-18.98 c 0.36,-11.11333 1.15333,-22.2 2.38,-33.26 1.08,-9.76 2.23333,-19.31667 3.46,-28.67 l 3.24,-10.88 c 0.11253,-0.38588 0.61622,-0.47959 0.86,-0.16 1.39333,1.84 2.23667,2.95667 2.53,3.35 0.87333,1.16667 1.80333,2.17667 2.79,3.03 5.56,4.78 11.22667,8.44333 17,10.99 10.46,4.62 21.94,8.78 34.44,12.48 0.36,0.11333 1.01667,0.45667 1.97,1.03 0.55333,0.32667 0.97333,0.86667 1.26,1.62 0.45333,1.21333 1.19667,2.72667 2.23,4.54 8.88,15.53333 16.06667,27.66333 21.56,36.39 1.24667,1.97333 4.43333,6.57333 9.56,13.8 1.7,2.39333 4.42667,5.61 8.18,9.65 2.53333,2.73333 5.48333,5.51 8.85,8.33 5.77333,4.84667 10.85333,8.71333 15.24,11.6 5.1,3.36 11.43,6.12 17.29,5.32 4.05333,-0.54667 8.45,-1.49333 13.19,-2.84 8.21333,-2.33333 12.35667,-3.51 12.43,-3.53 4.6,-1.04667 8.82,-2.11667 12.66,-3.21 9.22667,-2.64 18.05,-6.07667 26.47,-10.31 2.02,-1.01333 3.68667,-2.40667 5,-4.18 0.25333,-0.34667 0.42,-0.31 0.5,0.11 0.96,5.09333 1.73,8.93667 2.31,11.53 0.73333,3.32 1.27333,7.18667 1.62,11.6 0.58,7.48 0.71667,14.38667 0.41,20.72 -0.19,3.92 -0.78,7.68 -2.58,12.04 -0.48667,1.18667 -2.49333,6.16333 -6.02,14.93 -0.53333,1.34 -0.67,2.47667 -0.41,3.41 0.32667,1.17333 0.98,2.20667 1.96,3.1 4.22,3.84667 6.57,6.01 7.05,6.49 0.87333,0.86 1.80333,1.12 2.79,0.78 0.32,-0.10667 0.55667,-0.31 0.71,-0.61 5.05333,-9.82667 9.16,-20.07667 12.32,-30.75 0.50667,-1.69333 0.75,-4.41 0.73,-8.15 -0.04,-10.67 0.37,-21.34 -1.49,-31.96 -1.29333,-7.37333 -1.97,-14.42333 -2.03,-21.15 -0.004,-0.31064 0.28964,-0.53934 0.59,-0.46 6.33333,1.74 12.76,1.42667 19.28,-0.94 3.25,-1.18 6.71,-3.08 7.16,-6.95 0.10517,-0.89373 -0.57524,-1.68907 -1.48,-1.73 -3.41,-0.13 -9.76,-0.29 -13.48,-1.32 -7.14667,-1.98 -12.71667,-5.33667 -16.71,-10.07 -5.5,-6.52667 -9.60333,-13.79 -12.31,-21.79 -0.41333,-1.23333 -0.77667,-1.21667 -1.09,0.05 -2.7,10.91 -2.18,21.42 1.08,32.08 0.0934,0.29411 -0.0463,0.61579 -0.33,0.76 -0.17333,0.0933 -2.80333,1.63 -7.89,4.61 -4.28,2.51333 -8.7,4.66667 -13.26,6.46 -2.9,1.14 -7.58667,2.57 -14.06,4.29 -13.40667,3.56667 -24.52,6.86 -33.34,9.88 -4.38667,1.50667 -8.28,0.97 -11.68,-1.61 -9.92667,-7.5 -18.56,-15.75667 -25.9,-24.77 -3.7,-4.53333 -8.04667,-11.11 -13.04,-19.73 -7.9,-13.62667 -14.58,-24.98 -20.04,-34.06 -2.44667,-4.07333 -5.42667,-6.86667 -8.94,-8.38 -2.92667,-1.26667 -8.09333,-3.04333 -15.5,-5.33 -5.54667,-1.71333 -10.07333,-3.35333 -13.58,-4.92 -5.76667,-2.58 -10.18333,-4.66333 -13.25,-6.25 -3.10667,-1.6 -5.84667,-4.20333 -8.22,-7.81 -2.53333,-3.84 -5.86667,-9.84667 -10,-18.02 -1.32,-2.6 -2.38,-5.3 -3.18,-8.1 -0.63,-2.18 0.46,-2.79 2.03,-4.19 0.9,-0.8 1.74,-1.11667 2.52,-0.95 3.50667,0.74667 6.08,2.85 7.72,6.31 0.41333,0.87333 2.03333,3.98333 4.86,9.33 0.59333,1.12 0.86333,1.04667 0.81,-0.22 -0.16667,-3.60667 -0.26333,-5.95333 -0.29,-7.04 -0.0733,-2.51333 0.66,-4.25 2.2,-5.21 0.28667,-0.18 0.59667,-0.24667 0.93,-0.2 3.82667,0.52667 6.25333,2.60667 7.28,6.24 1.91333,6.8 2.99,10.61333 3.23,11.44 2.05,6.85 8.03,7.75 14.41,9.1 0.89333,0.18667 1.47667,0.24667 1.75,0.18 0.92667,-0.23333 1.08667,-0.78333 0.48,-1.65 -2.06,-2.9 -4.13333,-5.95333 -6.22,-9.16 -2.17,-3.3 -4.57,-9.16 -0.18,-11.64 1.21333,-0.68667 2.58667,-0.68333 4.12,0.01 1.87333,0.85333 3.49333,1.91 4.86,3.17 3.49333,3.23333 6.16333,6.23333 8.01,9 3.23333,4.84 5.38,8.01667 6.44,9.53 0.19333,0.28 0.44667,0.48333 0.76,0.61 1.48,0.59333 4.5,1.78 9.06,3.56 2.14667,0.84 3.93667,1.97 5.37,3.39 2.12,2.09 3.02,5.37 4.14,8.6 0.29333,0.85333 1.20333,2.33667 2.73,4.45 6.51333,9.02667 12.3,16.22333 17.36,21.59 2.07333,2.19333 5.18333,5.10333 9.33,8.73 2.63333,2.30667 5.94333,4.76 9.93,7.36 9.14,5.96 17.55333,11.50333 25.24,16.63 0.8,0.53333 1.48,0.40667 2.04,-0.38 4.84667,-6.86 10.42667,-12.78 16.74,-17.76 5.18667,-4.1 11.09333,-6.68 17.72,-7.74 5.56,-0.89333 8.80333,-1.42333 9.73,-1.59 1.94,-0.34667 3.68333,-1.2 5.23,-2.56 0.29965,-0.25825 0.0826,-0.74832 -0.31,-0.7 l -1.05,0.09 c -0.73368,0.075 -1.34947,-0.55054 -1.27,-1.29 0.62,-5.33 4.17,-9.44 7.72,-13.4 7.6,-8.48 17.45,-11.95667 29.55,-10.43 0.90667,0.11333 1.52333,0.59333 1.85,1.44 0.16667,0.43333 0.34,0.91333 0.52,1.44 0.11333,0.33333 0.48333,0.67667 1.11,1.03 4.38,2.48667 8.86,4.25 13.44,5.29 10.34,2.34 18.23333,4.01333 23.68,5.02 4.25,0.79 7.66,1.45 10.43,0.19 0.32,-0.14667 0.39333,-0.37333 0.22,-0.68 -2.40667,-4.22667 -5.50667,-7.78667 -9.3,-10.68 -1.78,-1.36 -4.83333,-2.97667 -9.16,-4.85 -1.76,-0.75333 -4.92333,-2.16333 -9.49,-4.23 -0.38,-0.16667 -0.48,-0.43667 -0.3,-0.81 0.2,-0.4 0.52,-0.73667 0.96,-1.01 6.35333,-3.98 11.69,-7.47333 16.01,-10.48 0.86667,-0.60667 1.44667,-0.4 1.74,0.62 0.54667,1.92 1.92333,3.56667 4.13,4.94 0.5212,0.32743 1.19104,-0.0875 1.13,-0.7 l -3.4,-36.03 c -0.0294,-0.28556 -0.26324,-0.50666 -0.55,-0.52 -6.72,-0.28 -10.25333,-0.44 -10.6,-0.48 -2.61,-0.3 -8.09,-1.84 -8.85,-4.44 -0.12667,-0.42667 -0.15333,-0.96 -0.08,-1.6 0.44,-3.88 0.51333,-7.76333 0.22,-11.65 -0.02,-0.23333 -0.25,-1.55667 -0.69,-3.97 -0.46,-2.58 -0.01,-6.35 0.04,-8.82 0.006,-0.32484 -0.21234,-0.61311 -0.53,-0.7 -1.92667,-0.52 -3.83333,-1.53667 -5.72,-3.05 -1.06667,-0.86 -1.21667,-1.84667 -0.45,-2.96 4.46667,-6.48667 8.10333,-12.90333 10.91,-19.25 1.02,-2.31333 1.79333,-5.18667 2.32,-8.62 0.0464,-0.33208 -0.13323,-0.65463 -0.44,-0.79 -2.33,-1.02 -4.63,-1.95 -6.29,-3.42 -3.67,-3.26 -5.19,-7.74 -4.91,-12.92 0.65333,-11.96 6.86667,-19.97333 18.64,-24.04 3.15,-1.09 9.36,-1.23 13.14,-2.91 1.64,-0.73333 3.35333,-1.85667 5.14,-3.37 1.18,-1.00667 1.70667,-0.73667 1.58,0.81 -0.0467,0.58667 -0.27333,1.32333 -0.68,2.21 -2.24667,4.87333 -3.53667,7.77 -3.87,8.69 -0.43333,1.19333 -0.0233,1.89 1.23,2.09 5.44,0.86 9.95,1.59 14.8,-1.75 2.09,-1.45 4.47,-4.51 5.78,-5.91 1.63,-1.74 2.94,-1.76 5.16,-1.78 3.88,-0.0333 8.43,0.29333 13.65,0.98 4.74667,0.62 8.89,-0.11 12.43,-2.19 0.68667,-0.4 1.09333,-0.21 1.22,0.57 0.91,5.63 -4.18,10.92 -8.76,13.38 -3.6,1.93 -6.65,3.19 -8.52,6.13 -0.30722,0.46139 0.0468,1.07501 0.6,1.04 6.16667,-0.36667 11.83333,1.26667 17,4.9 0.72,0.50667 2.57,1.23667 5.55,2.19 2.20667,0.71333 4.14667,1.08333 5.82,1.11 5.98,0.11333 10.58,-2.44333 13.8,-7.67 0.32494,-0.51752 1.07349,-0.53334 1.42,-0.03 1.05,1.52 0.99,3.32 1.04,5.73 0.19,8.86 -4.79,18.58 -13.77,21.52 -1.60667,0.52667 -3.69333,0.99667 -6.26,1.41 -0.46756,0.0769 -0.7799,0.52051 -0.69,0.98 0.20667,1.13333 0.79333,2.16333 1.76,3.09 3.83333,3.65333 7.47333,5.72 10.92,6.2 3.24667,0.45333 5.70333,-0.62 7.37,-3.22 0.2441,-0.37283 0.78501,-0.38829 1.05,-0.03 0.45333,0.60667 0.63667,1.38667 0.55,2.34 -0.79,8.8 -6.86,17.11 -16.42,17.17 -2.13333,0.0133 -4.37333,-0.17333 -6.72,-0.56 -0.52741,-0.0836 -0.98786,0.35679 -0.92,0.88 0.47,3.93 3.04,6.96 5.03,10.33 0.15415,0.26398 0.20068,0.57897 0.13,0.88 -0.5,2.14 -1.42667,3.95667 -2.78,5.45 -0.9,0.98667 -2.12667,1.46667 -3.68,1.44 -1.38667,-0.02 -3.58333,-0.13667 -6.59,-0.35 -4.42667,-0.32 -7.00333,1.78333 -7.73,6.31 -0.72,4.54 -0.22,12.28 0.62,16.63 1.31333,6.8 4.94333,11.98333 10.89,15.55 8.79333,5.28 15.93667,10.11 21.43,14.49 1.23333,0.98667 2.61,2.81 4.13,5.47 0.16775,0.28387 0.42671,0.49672 0.73,0.6 1.17333,0.40667 2.17333,0.60333 3,0.59 3.72,-0.0533 6.84333,0.0533 9.37,0.32 8.20667,0.86 15.06667,3.81667 20.58,8.87 7.1,6.5 11.85,17.37 12.61,26.93 0.42,5.23333 0.33667,11.82 -0.25,19.76 -0.07,0.91 0.44,2.09 1.12,2.96 4.6,5.90667 8.05,12.74 10.35,20.5 1.07333,3.62667 1.97,8.47 2.69,14.53 0.28667,2.43333 0.80333,4.80333 1.55,7.11 0.43333,1.34667 1.73333,3.30333 3.9,5.87 8.80667,10.42 14.05667,22.68 15.75,36.78 0.48,4.04 1.33333,11.27333 2.56,21.7 0.45333,3.86 1.27333,8 2.46,12.42 0.1763,0.66626 0.72368,1.17482 1.41,1.31 6.05,1.19 9.04,2.8 16.61,6.19 2.94667,1.32 5.92333,2.47 8.93,3.45 6.10667,2 9.87667,3.28667 11.31,3.86 2.3,0.92 5.19,2.14 4.54,4.88 -1.27,5.37 -5.94,6.49 -10.63,6.42 -1.06667,-0.0133 -2.80667,-0.33333 -5.22,-0.96 -3.01333,-0.78667 -5.85,-1.07667 -8.51,-0.87 -0.25661,0.0206 -0.45567,0.2326 -0.46,0.49 -0.08,2.11333 0.30333,4.26667 1.15,6.46 1.81333,4.72667 3.21333,8.28667 4.2,10.68 0.78,1.87333 1.18667,3.89667 1.22,6.07 0.12667,7.54 -2.82667,13.75333 -8.86,18.64 -0.7138,0.5732 -1.77645,0.0944 -1.82,-0.82 -0.18667,-3.98667 -0.59333,-7.86333 -1.22,-11.63 -0.34667,-2.08 -0.87333,-4.01 -1.58,-5.79 -0.46667,-1.17333 -0.90667,-1.16333 -1.32,0.03 -0.36667,1.04667 -0.66667,2.7 -0.9,4.96 -0.28667,2.74667 -0.49,4.4 -0.61,4.96 -1.82667,8.07333 -6.99667,13.09 -15.51,15.05 -2.96,0.69 -5.52,-1.73 -8.05,-3.16 -0.51444,-0.28586 -0.62227,-0.98184 -0.22,-1.42 1.85333,-1.96 4.44667,-4.51 7.78,-7.65 1.58667,-1.5 2.80667,-3.35333 3.66,-5.56 0.38,-0.96667 0.05,-1.45667 -0.99,-1.47 L 711.43,651 c -0.72144,-0.0128 -1.3936,0.37517 -1.75,1.01 -2.38,4.25 -6.19,6.64 -11.03,7.45 -6.19,1.04 -12.74,1.72 -17.93,-2.68 -2.33,-1.96 -0.96,-5.41 0.91,-6.95 0.29333,-0.23333 0.62667,-0.36 1,-0.38 l 11.48,-0.49 c 0.46749,-0.0195 0.90691,-0.22486 1.22,-0.57 3.03,-3.34 2.17,-6.11 1.35,-10.99 -0.71,-4.2 -2.13,-9.14 -2.3,-13.25 -0.16667,-4.18667 0.18,-8.31333 1.04,-12.38 0.24,-1.12 -0.17333,-2.59667 -1.24,-4.43 -2.59333,-4.44667 -7.48,-12.95333 -14.66,-25.52 -4.17,-7.3 -6.81,-13.93 -9.04,-21.14 -1.43333,-4.62 -2.11,-8.01333 -2.03,-10.18 0.1,-2.6 0.14,-5.10333 0.12,-7.51 -0.007,-1.37333 -0.83,-3.24 -2.47,-5.6 -4.5,-6.48 -9.88667,-13.92 -16.16,-22.32 -2.12667,-2.84 -3.65667,-5.56 -4.59,-8.16 -1.47333,-4.1 -2.28667,-6.26333 -2.44,-6.49 -0.28667,-0.42667 -0.47333,-0.45333 -0.56,-0.08 -0.12667,0.55333 -0.27,2.14667 -0.43,4.78 -0.12,1.91333 -0.35,3.48667 -0.69,4.72 -2.99333,10.72 -7.16333,20.93333 -12.51,30.64 -3.49,6.35 -9.49,14.41 -13.21,20.04 -2.78,4.2 -4.49,8.88 -5.13,14.04 -0.69333,5.56667 -1.05667,11.88 -1.09,18.94 -0.007,1.40667 -0.36333,2.88 -1.07,4.42 -0.61333,0.0267 -1.35333,0.16333 -2.22,0.41 -2.08,0.59333 -5.56333,1.65 -10.45,3.17 -4.37333,1.36 -7.9,2.26 -10.58,2.7 -8.97333,1.46667 -18.03,1.48 -27.17,0.04 -4.82667,-0.76 -8.78667,-1.88 -11.88,-3.36 -2.68667,-1.28 -6.10667,-3.52 -10.26,-6.72 -0.70667,-0.54667 -1.58,-0.88667 -2.62,-1.02 -0.3823,-0.0509 -0.67078,0.33944 -0.51,0.69 1.66667,3.69333 3.78,7.34333 6.34,10.95 2.66,3.75333 5.62333,6.73333 8.89,8.94 5.90667,3.99333 11.92333,7.19 18.05,9.59 3.38,1.32 7.77333,2.36333 13.18,3.13 6.48667,0.92 10.99,1.38667 13.51,1.4 5.78,0.04 13.32667,-0.81667 22.64,-2.57 4.61333,-0.87333 9.48333,-2.23 14.61,-4.07 11.4,-4.1 19.96,-8.3 29.86,-12.84 1.96,-0.9 4.75333,-1.06667 8.38,-0.5 -1.16,3.81333 -2.64667,6.96 -4.46,9.44 -4.30667,5.88667 -9.47,10.8 -15.49,14.74 -9,5.88 -18.66333,9.85667 -28.99,11.93 -10.74,2.14667 -19.17,3.49 -25.29,4.03 -5.27333,0.46667 -10.02333,0.56667 -14.25,0.3 -10.25333,-0.64 -20.48667,-1.84333 -30.7,-3.61 -8.27333,-1.43333 -15.14667,-3.12 -20.62,-5.06 -7.57333,-2.68667 -15.95667,-5.73333 -25.15,-9.14 -6.04667,-2.23333 -11.45333,-4.75 -16.22,-7.55 -3.12667,-1.84 -8.71667,-5.41333 -16.77,-10.72 -4.91333,-3.24 -8.4,-5.78333 -10.46,-7.63 -6.52667,-5.86667 -12.24,-12.20333 -17.14,-19.01 -3.02667,-4.20667 -5.39,-9.6 -7.09,-16.18 -0.50667,-1.98667 -0.62333,-4.57333 -0.35,-7.76 0.27333,-3.11333 0.34333,-5.71 0.21,-7.79 -0.0667,-1.04 -0.44,-1.16667 -1.12,-0.38 -3.51333,4.09333 -6.32667,8.43333 -8.44,13.02 -1.73333,3.76 -2.93667,8.7 -3.61,14.82 -1.08667,9.8 -0.44667,19.52667 1.92,29.18 4.54667,16.57333 12.65667,30.92 24.33,43.04 2.2,2.28 5.5,5.44 9.9,9.48 4.60667,4.22667 8.16,7.10667 10.66,8.64 0.76,0.47333 4.26333,2.62 10.51,6.44 3.72667,2.28 7.21,4.12667 10.45,5.54 5.31333,2.32 8.93,3.76667 10.85,4.34 9.76,2.94 19.02667,5.47667 27.8,7.61 5.25333,1.28 13.74667,2.65333 25.48,4.12 1.26,0.19333 1.84333,0.78333 1.75,1.77 -0.31,3.16 -3.95,5.68 -6.46,7.21 -1.59,0.97 -3.25,1.06 -4.58,1.91 -0.88,0.56667 -2.04667,0.92 -3.5,1.06 -3.17333,0.30667 -6.38667,0.41333 -9.64,0.32 -6.27333,-0.4 -12.53667,-1.1 -18.79,-2.1 -6.10667,-0.97333 -11.70667,-2.33 -16.8,-4.07 -4.62667,-1.58 -11.46333,-4.46 -20.51,-8.64 -4.46,-2.06 -9.35,-5.08 -13.3,-7.3 -4.32667,-2.43333 -7.57333,-4.38667 -9.74,-5.86 -9.10667,-6.18 -17.26,-13.41 -24.46,-21.69 -2.42,-2.86667 -4.76667,-5.68 -7.04,-8.44 -2.63333,-3.2 -5.81333,-5.54 -9.54,-7.02 -9.44667,-3.9 -17.78333,-9.37667 -25.01,-16.43 -5.42,-5.29333 -9.18333,-11.50667 -11.29,-18.64 -1.16667,-3.97333 -1.98333,-7.05 -2.45,-9.23 -0.29333,-1.4 -0.71667,-1.44 -1.27,-0.12 -1.91333,4.57333 -3.69667,9.21667 -5.35,13.93 -1.3,3.72667 -1.93,7.36667 -1.89,10.92 0.0667,5.62 1.23,11.03 3.49,16.23 3.06,6.70667 7,12.82 11.82,18.34 3.81333,4.58667 7.84667,8.56333 12.1,11.93 5.30667,4.18667 11.38,7.19 18.22,9.01 4.59333,1.22667 12.37333,3.52 23.34,6.88 l 2.67,0.86 c 3.64,1.66667 7.72667,3.99667 12.26,6.99 4.02667,2.66 6.19667,6.48667 6.51,11.48 -15.26,-0.28 -30.42333,-2.03 -45.49,-5.25 -7.32667,-1.56667 -14.4,-3.86333 -21.22,-6.89 -5.28,-2.34 -11.22,-6.43 -14.53,-8.47 -3.72667,-2.29333 -7.16333,-4.71 -10.31,-7.25 -9.59333,-7.74 -18.65333,-16.53333 -27.18,-26.38 -2.00667,-2.32 -3.77667,-4.31667 -5.31,-5.99 -1.46,-1.6 -2.32333,-1.96667 -2.59,-1.1 -0.0733,0.22 0.10333,0.81333 0.53,1.78 1.82,4.12667 3.81,7.70667 5.97,10.74 9.99333,14.03333 20.62333,26.02667 31.89,35.98 4.87333,4.31333 12.32667,10.31667 22.36,18.01 5.3,4.06667 11.24667,8.02333 17.84,11.87 7.94,4.62667 14.87,8.46333 20.79,11.51 2.88,1.48667 11.74333,5.34667 26.59,11.58 4.02667,1.69333 7.93667,3.01667 11.73,3.97 2.88667,0.72667 6.88667,1.83333 12,3.32 2.42667,0.70667 5.10667,1.31667 8.04,1.83 0.64,0.11333 3.33667,0.63667 8.09,1.57 7.55333,1.48667 15.89333,2.41667 25.02,2.79 1.39,0.06 2.98,0.76 4.1,0.76 2.48667,0 7.8,0.22333 15.94,0.67 4.51333,0.25333 13.87333,0.26667 28.08,0.04 2.79333,-0.0467 5.41,-0.19667 7.85,-0.45 7.03,-0.74 13.37,-1.33 19.37,-2.75 5.07333,-1.2 9.36667,-2.09 12.88,-2.67 5.73,-0.94 11.35,-3.1 17.22,-5.01 3.96,-1.3 9.64,-2.22 13.31,-3.99 6.37333,-3.07333 12.28667,-5.75 17.74,-8.03 2.46,-1.03333 6.81333,-3.05333 13.06,-6.06 5.06667,-2.44 9.29667,-4.68667 12.69,-6.74 14.70667,-8.89333 28.87,-19.09 42.49,-30.59 3.96667,-3.35333 8.73667,-7.99667 14.31,-13.93 6.12667,-6.52667 10.75333,-11.35667 13.88,-14.49 3.06667,-3.08667 5.38333,-5.75667 6.95,-8.01 1.12667,-1.62667 3.31667,-4.42 6.57,-8.38 1.95333,-2.38 4.82,-6.84333 8.6,-13.39 3.98,-6.88 8.00333,-13.72667 12.07,-20.54 2.77333,-4.64667 5.67333,-10.58333 8.7,-17.81 l 7.86,-21.7 c 5.89333,-18.82667 10.3,-37.93 13.22,-57.31 1.93,-15.65 2.34,-31.28 0.85,-46.96 -0.42667,-4.5 -0.88333,-8.81333 -1.37,-12.94 -0.79333,-6.66667 -2.36333,-13.54333 -4.71,-20.63 -0.24667,-0.74667 -1.63333,-4.96333 -4.16,-12.65 -1.38667,-4.20667 -4.15333,-9.55 -8.3,-16.03 -3.7,-6.58 -8.35667,-12.67667 -13.97,-18.29 -0.48667,-0.48667 -0.86,-0.41333 -1.12,0.22 l -2.51,6.09 c -0.20277,0.48433 -0.26848,1.017 -0.19,1.54 0.62,4.36667 2.06,8.53667 4.32,12.51 5.73333,13.1 10.71333,26.49667 14.94,40.19 1.79333,5.79333 2.95667,10.82667 3.49,15.1 1.49333,11.90667 1.43,24.88667 -0.19,38.94 -0.48667,4.24 -1.24,8.34333 -2.26,12.31 -2.46,9.58 -5.11,16.54 -8.93,26.55 -1.61333,4.24 -3.30667,7.72 -5.08,10.44 -2.13333,3.26667 -4.5,6.36333 -7.1,9.29 -1.31333,0.20667 -2.54667,0.17667 -3.7,-0.09 -0.33333,-0.08 -0.50667,-0.29 -0.52,-0.63 -0.0933,-2.64667 0,-4.61 0.28,-5.89 1.14667,-5.32 1.85667,-10.69 2.13,-16.11 l 0.77,-3.78 c 1.93333,-5.91333 3.05667,-9.80333 3.37,-11.67 1.42667,-8.5 2.35,-17.12333 2.77,-25.87 0.26667,-9.19333 -0.33,-18.34667 -1.79,-27.46 -1.17333,-7.29333 -2.82333,-13.62 -4.95,-18.98 -2.80667,-7.05333 -5.66667,-12.95667 -8.58,-17.71 -5.26667,-8.60667 -10.52667,-16.17 -15.78,-22.69 -4.16,-5.16 -8.31667,-9.7 -12.47,-13.62 -7.31333,-6.92 -16.16667,-12.72667 -26.56,-17.42 -2.38,-1.07333 -4.92667,-1.96 -7.64,-2.66 -2.62,-0.68 -5.15,-1.45333 -7.59,-2.32 -0.0867,-0.0267 -0.17667,-0.03 -0.27,-0.01 -0.14667,0.0333 -0.21667,0.14 -0.21,0.32 0,0.08 0.0367,0.14333 0.11,0.19 5.58,3.46 9.21,5.92 10.89,7.38 6.08,5.29333 12.40333,12.75667 18.97,22.39 3.91333,5.73333 6.89,10.28 8.93,13.64 6.51333,10.72667 10.23,22.17667 11.15,34.35 0.49333,6.56667 0.82,10.81333 0.98,12.74 0.26,3.06667 0.0667,8.06 -0.58,14.98 -0.58,6.20667 -1.81,11.89667 -3.69,17.07 -1.19333,3.29333 -3.70333,8.80667 -7.53,16.54 -1.28667,2.6 -2.50333,4.86 -3.65,6.78 -1.91333,3.20667 -3.38,5.32667 -4.4,6.36 -2.15333,2.18 -4.28333,4.5 -6.39,6.96 -2.6,-4.52 -4.72,-9.5 -7.3,-13.55 -1.52,-2.38 -3.07667,-4.74 -4.67,-7.08 -1.32667,-1.94 -2.25667,-4.98667 -2.79,-9.14 0.13333,-0.12667 0.22,-0.28333 0.26,-0.47 0.0667,-0.27333 0.23,-0.36 0.49,-0.26 0.16667,0.06 0.28,0.16667 0.34,0.32 0.47333,1.22667 1.21667,2.09667 2.23,2.61 0.90667,0.46 1.93667,0.43 3.09,-0.09 2.26,-1.02 3.92333,-2.61333 4.99,-4.78 2.28,-3.66667 4,-6.94667 5.16,-9.84 2.33333,-5.81333 3.07,-12.06667 2.21,-18.76 -0.38667,-8.96667 -2.11333,-17.74667 -5.18,-26.34 -2.83333,-7.93333 -7.34333,-14.99667 -13.53,-21.19 -0.41298,-0.42075 -1.12917,-0.18399 -1.21,0.4 -0.9,6.19333 -1.09,12.51 -0.57,18.95 0.83333,10.30667 1.67333,20.55 2.52,30.73 l 0.2,10.05 c 0.3,3.43 0.77,6.86 -0.93,10.03 -0.16,0.29333 -0.22333,0.60333 -0.19,0.93 0.15333,1.38667 0.20667,2.31 0.16,2.77 -0.12,1.30667 -0.32667,1.65 -0.62,1.03 -0.66,-2.61333 -1.32667,-5.22667 -2,-7.84 -0.8,-3.09333 -1.63333,-5.61333 -2.5,-7.56 -2.44,-5.48667 -5.50667,-10.99 -9.2,-16.51 -1.02667,-1.52667 -1.41,-3.12 -1.15,-4.78 2.84667,-18.06 -0.95,-33.81667 -11.39,-47.27 -8.85,-11.41 -22.44,-19.45 -37.05,-20.56 -1.72,-0.13 -2.71,-0.68 -4.06,-1.54 -10.36667,-6.57333 -18.18,-11.46667 -23.44,-14.68 -1.22,-0.74667 -2.60667,-1.85 -4.16,-3.31 -0.85333,-0.8 -1.34333,-2.01333 -1.47,-3.64 -0.0533,-0.60667 -0.22667,-2.04667 -0.52,-4.32 -0.04,-0.34 0.1,-0.57333 0.42,-0.7 7.7,-3.06 15.49,-7.15 15.83,-16.35 0.03,-0.87 -0.21,-2.19 -0.15,-3.28 0.0133,-0.34 0.18667,-0.55 0.52,-0.63 10.98,-2.69 17.88,-8.54 19.61,-19.72 1.15,-7.4 0.56,-15.61 -0.46,-22.9 -0.21,-1.53 -0.89,-2.22 -2.14,-2.76 -0.638,-0.26758 -0.93179,-1.0043 -0.65,-1.63 1.89333,-4.23333 2.65667,-8.98333 2.29,-14.25 -0.0267,-0.39333 -0.48667,-8.27333 -1.38,-23.64 -0.0733,-1.3 -0.71667,-1.70667 -1.93,-1.22 -7.00667,2.82 -13.94667,4.87667 -20.82,6.17 -1.17333,0.22 -2.18333,0.17667 -3.03,-0.13 -0.34667,-0.13333 -0.53333,-0.38333 -0.56,-0.75 -0.25333,-3.31333 -0.8,-6.63 -1.64,-9.95 -1.22,-4.8 -1.47,-9.44 -1.93,-15.22 -0.0663,-0.88648 -0.97278,-1.45741 -1.81,-1.14 -2.74,1.06 -5.83,2.07 -9.27,3.03 -3.22,0.91 -5.84,2.54 -8.39,4.48 -0.82967,0.63849 -1.93797,0.78702 -2.91,0.39 -7.42,-3.04 -15.07333,-3.88 -22.96,-2.52 -0.36,0.06 -0.69333,0.18 -1,0.36 l -1.47,0.85 c -0.25333,0.14 -0.47667,0.10333 -0.67,-0.11 -0.96,-1.07333 -2.39333,-2.37667 -4.3,-3.91 -1.27333,-1.02667 -2.75,-1.54667 -4.43,-1.56 -3.88667,-0.0333 -7.38333,0.33 -10.49,1.09 -3.94667,0.97333 -5.96,1.47 -6.04,1.49 -5.84,1.20667 -8.78333,1.81667 -8.83,1.83 -12.34,2.6 -21.77,9.80667 -28.29,21.62 -2.64,4.79333 -4.18667,9.2 -4.64,13.22 -0.9,7.94 -0.41,15.36 4.1,21.97 2.08667,3.05333 3.54667,5.37 4.38,6.95 0.12382,0.23656 0.11625,0.52038 -0.02,0.75 -1.11333,1.89333 -3.11,5.37333 -5.99,10.44 -4.08,7.17 -5.23,15.1 1.99,20.73 0.59333,0.46 1.13,0.92333 1.61,1.39 0.2,0.19333 0.3,0.43 0.3,0.71 -0.0933,11.12667 0.0233,19.02333 0.35,23.69 0.47,6.7 7.62,11.58 13.82,13.09 1.72667,0.42 3.20333,0.73667 4.43,0.95 0.38667,0.0733 0.53333,0.3 0.44,0.68 l -1.12,4.74 c -0.0467,0.21333 -0.28333,0.44 -0.71,0.68 -1.14,0.65 -2.85,1.28 -4.17,2.17 -4,2.70667 -8.32333,5.80333 -12.97,9.29 -0.73368,0.54704 -1.64197,0.8035 -2.55,0.72 -1.89333,-0.18 -4.67,-0.48 -8.33,-0.9 -3.24,-0.37333 -5.48667,-0.42 -6.74,-0.14 -1.53333,0.34667 -3.03,0.58667 -4.49,0.72 -1.33333,0.12 -2.8,0.44333 -4.4,0.97 -15.95333,5.22 -27.28667,15.60667 -34,31.16 -0.17665,0.40483 -0.57833,0.66474 -1.02,0.66 -2.93333,-0.04 -5.90667,0.43333 -8.92,1.42 -10.27333,3.36 -18.85667,9.12667 -25.75,17.3 -0.37333,0.44667 -0.81667,0.53667 -1.33,0.27 -17.81333,-9.34667 -32.52667,-22.21667 -44.14,-38.61 -2.21,-3.11 -4.02,-7.88 -6.22,-11.02 -5.69,-8.1 -12.9,-12.87 -21.13,-18.64 -2.46,-1.72667 -4.06,-4.05667 -4.8,-6.99 -0.0867,-0.33333 0.0433,-0.51333 0.39,-0.54 10.16667,-0.76667 19.86,-3.14 29.08,-7.12 7.76,-3.35333 14.74667,-8.13 20.96,-14.33 15.04,-14.99 24.73,-35.05 24.56,-56.33 -0.0333,-3.93333 -0.0933,-6.85 -0.18,-8.75 -0.41333,-9.37333 -2.47667,-17.87667 -6.19,-25.51 -3.82,-7.84 -9.37333,-15.75 -16.66,-23.73 -0.02,-0.46667 0.22667,-0.84667 0.74,-1.14 3.2,-1.81 6.22,-3.83 9.55,-5.34 6.70667,-3.03333 13.32333,-6.23 19.85,-9.59 8.78667,-4.52 14.58,-7.29 17.38,-8.31 14,-5.12 26.11667,-9.25667 36.35,-12.41 3.96,-1.22 8.99333,-2.29333 15.1,-3.22 3.51333,-0.52667 7.45,-1.32667 11.81,-2.4 7.87,-1.94 14.78,-2.58 23.53,-3.31 3.61333,-0.30667 7.49667,-0.51 11.65,-0.61 3.9,-0.0933 7.79333,-0.20667 11.68,-0.34 z m 229.38,182.56 c -1.24,-5.08 -3.58667,-9.66667 -7.04,-13.76 -6.83333,-8.11333 -10.68333,-12.69 -11.55,-13.73 -0.27202,-0.33176 -0.80486,-0.2308 -0.95,0.18 -0.6,1.81333 -0.73667,3.78667 -0.41,5.92 0.63333,4.14 1.78667,8.39 3.46,12.75 2.35,6.14 6.17,9.61 11.58,13.78 1.49333,1.15333 3.09667,1.96333 4.81,2.43 0.42814,0.1108 0.84635,-0.20408 0.85,-0.64 0.02,-2.50667 -0.23,-4.81667 -0.75,-6.93 z m -146.63,89.84 c -6.70667,7.48 -14.27333,13.92 -22.7,19.32 -16.33,10.45 -35.95,9.26 -52.78,0.62 -0.92667,-0.47333 -2.37,-1.54 -4.33,-3.2 -0.3,-0.25333 -0.46,-0.18333 -0.48,0.21 -0.15333,3.36 0.31,5.92667 1.39,7.7 2.33333,3.82 6.05,7.09667 11.15,9.83 6.29333,3.37333 13.90333,5.51 22.83,6.41 11.26,1.14 23.9,-4.24 32.45,-11.88 6.99,-6.24 11.19,-16.7 13.91,-26.01 0.56,-1.91333 0.70667,-3.48667 0.44,-4.72 -0.08,-0.38667 -0.27,-0.45 -0.57,-0.19 -0.17333,0.14667 -0.36667,0.4 -0.58,0.76 -0.36667,0.64 -0.61,1.02333 -0.73,1.15 z m -265.95,83.2 c -0.18157,-0.27767 -0.58843,-0.27767 -0.77,0 -2.62,4.13 -8.48,13.85 -5.89,18.25 2.99333,5.08 7.39667,6.80667 13.21,5.18 6.5,-1.83 5.41,-8.57 1.91,-12.63 -3.71333,-4.30667 -6.53333,-7.90667 -8.46,-10.8 z"
       id="svg_987"
       sodipodi:nodetypes="cccccccccccccccccscccccccccccccccccccccccccccccccccccccccccccccccccccccscccccccccccsccccccccccccccccccccccccccccccccccccccccccccccccccccccccccccccccccccccccccccccccccccccccccccccccccccccccccccccccccccccccccccccccccccscccccccccccccccccccccccccccccsccccccccccccccccccccccccccccsccccccccccccccccccsccccccccccccccccccccccccccccccccsccccccccccccccccccccccccccccccccccccccccccccccccccccccccccsccccccccccccccccsccccccccsccccccccccccccccscccccccccccccccccscscccccccccccccccccccccccccccccccccccccccccccccccccccccccccccccccccccccccccccccccccccccccccccccccccccccccccccccccccccccccccccccccccccccccccccccc" />
    <path
       fill="#f4831a"
       d="m 284.57,234.78 c -2.48667,1.09333 -4.81,1.06 -6.97,-0.1 -1.41333,-0.76 -2.02667,-2.24333 -1.84,-4.45 0.1,-1.19333 0.87667,-2.35 2.33,-3.47 4.84667,-3.74 8.36333,-6.28667 10.55,-7.64 0.6692,-0.41257 1.53242,0.0639 1.54,0.85 0.007,0.70667 -0.10667,1.35333 -0.34,1.94 -2.14,5.4 -3.5,9.09333 -4.08,11.08 -0.28,0.97333 -0.67667,1.57 -1.19,1.79 z"
       id="svg_988"
       sodipodi:nodetypes="ccccccccc" />
    <path
       fill="#fe5512"
       d="m 390.2,292.18 c -10.67,2.86 -20.08,-4.11 -32.01,-3.91 -7.1,0.13 -11.42,3.9 -15.55,9.47 -0.19333,0.26667 -0.22333,0.55 -0.09,0.85 1.22,2.68667 1.27667,5.31333 0.17,7.88 -0.37333,-3.54 -1.58333,-6.73333 -3.63,-9.58 -2.09333,-2.92 -4.36667,-5.87667 -6.82,-8.87 -0.14667,-0.84667 -0.75,-1.78667 -1.81,-2.82 l -1.42,-2.28 c -0.18,-0.28667 -0.43667,-0.38667 -0.77,-0.3 -21.35333,5.72667 -42.91667,10.61667 -64.69,14.67 -0.34,0.06 -0.5,0.26333 -0.48,0.61 l 0.63,14.58 c 0.70667,3.21333 0.94667,6.43333 0.72,9.66 -1.80667,-5.16 -2.95,-10.45333 -3.43,-15.88 -0.94,-10.66 0.11333,-21.04 3.16,-31.14 5.23333,-1.77333 10.52,-2.17333 15.86,-1.2 2.73333,8.54 7.97667,13.04333 15.73,13.51 l 2.74,0.83 c 0.32667,0.1 0.64,0.0667 0.94,-0.1 10.14,-5.70667 20.78,-9.4 31.92,-11.08 6.20667,-0.94 13.06,-1.54333 20.56,-1.81 6.10667,3.12 9.81333,1.60667 11.12,-4.54 0.39333,-1.84 0.06,-4.57 -1,-8.19 -0.80667,-2.78 -1.72667,-6.23667 -2.76,-10.37 -0.88667,-3.57333 -0.87,-6.69667 0.05,-9.37 0.11645,-0.35599 0.3528,-0.66289 0.67,-0.87 0.96,-0.64 1.76667,-0.46333 2.42,0.53 2.42667,3.66 4.88667,6.91 7.38,9.75 7.84,8.92667 13.65667,18.19 17.45,27.79 1.32,3.34 2.3,7.4 2.94,12.18 z"
       id="svg_998"
       sodipodi:nodetypes="ccccccccccccccccccccccccccccccc" />
    <path
       fill="#ed3a06"
       d="m 280.04,273.92 c -5.34,-0.97333 -10.62667,-0.57333 -15.86,1.2 0.54667,-2.77333 1.42,-5.39333 2.62,-7.86 3.72,-7.66 7.43,-13.75 13.7,-18.64 0.18335,-0.14011 0.44796,-0.0107 0.45,0.22 -0.0133,1.10667 -0.14667,2.23 -0.4,3.37 -1.6,7.27333 -1.77,14.51 -0.51,21.71 z"
       id="svg_999"
       sodipodi:nodetypes="ccccccc" />
    <path
       fill="#f87010"
       d="m 330.46,285.2 c -1.77,4.75 -6.18,6.74 -11.04,7.56 l -2.3,-5.99 c -0.24667,-0.64 -0.33333,-0.62 -0.26,0.06 0.5,4.61 0.9,8.79 -0.5,13.7 -6.69333,-0.76 -13.25,-0.31 -19.67,1.35 -11.18667,2.89333 -22.17333,6.42667 -32.96,10.6 L 263.1,297.9 c -0.02,-0.34667 0.14,-0.55 0.48,-0.61 21.77333,-4.05333 43.33667,-8.94333 64.69,-14.67 0.33333,-0.0867 0.59,0.0133 0.77,0.3 z"
       id="svg_1010"
       sodipodi:nodetypes="cccccccccccc" />
    <path
       fill="#f87010"
       d="m 390.2,292.18 c 0.84667,6.40667 0.79667,12.76 -0.15,19.06 -6.8,-0.84 -13.53,-1.05333 -20.19,-0.64 -0.35333,0.02 -0.53,0.20667 -0.53,0.56 0.02,4.65 0.1,9.71 -1.43,13.85 -0.17333,0.47333 -0.28,0.46 -0.32,-0.04 l -0.21,-3.05 c 0.28,-6.30667 0.0167,-11.71667 -0.79,-16.23 -0.74,-4.18 -1.41,-8.39 -2.01,-12.63 -0.0133,-0.0867 -0.0633,-0.13667 -0.15,-0.15 l -0.28,-0.04 c -0.2,-0.0267 -0.29333,0.06 -0.28,0.26 0.33333,4.88 0.43333,9.23 0.3,13.05 -0.08,2.34667 -0.7,4.60667 -1.86,6.78 -4.83333,-2.62 -9.5,-3.89 -14,-3.81 -1.28,0.0267 -2.64333,0.62 -4.09,1.78 -0.13333,0.10667 -0.28333,0.15 -0.45,0.13 -0.0933,-0.0133 -0.18667,-0.0233 -0.28,-0.03 -0.35333,-0.0333 -0.55333,0.12333 -0.6,0.47 l -0.07,0.53 -0.09,-5.56 c 1.10667,-2.56667 1.05,-5.19333 -0.17,-7.88 -0.13333,-0.3 -0.10333,-0.58333 0.09,-0.85 4.13,-5.57 8.45,-9.34 15.55,-9.47 11.93,-0.2 21.34,6.77 32.01,3.91 z"
       id="svg_1011"
       sodipodi:nodetypes="ccccccccccccccccccccccccc" />
    <path
       fill="#fd9b21"
       d="m 330.46,285.2 c 1.06,1.03333 1.66333,1.97333 1.81,2.82 0.46,1.39333 1.34,3.08 2.64,5.06 1.81333,2.76 2.81667,5.98 3.01,9.66 0.14667,2.7 -0.37667,5.20333 -1.57,7.51 l -12.5,-4.7 c -0.75333,-4.4 -2.23,-8.66333 -4.43,-12.79 4.86,-0.82 9.27,-2.81 11.04,-7.56 z"
       id="svg_1012"
       sodipodi:nodetypes="cccccccc" />
    <path
       fill="#fffec5"
       d="m 319.42,292.76 c 2.2,4.12667 3.67667,8.39 4.43,12.79 0.1,2.54 0.16,5.09667 0.18,7.67 0.0133,1.49333 0.12333,2.49 0.33,2.99 0.46,1.14 0.75333,2.08333 0.88,2.83 0.06,0.36 0.26667,0.58667 0.62,0.68 1.93333,0.54 3.31333,0.46333 4.14,-0.23 2.35333,-1.96667 4.47,-5.04667 6.35,-9.24 1.19333,-2.30667 1.71667,-4.81 1.57,-7.51 -0.19333,-3.68 -1.19667,-6.9 -3.01,-9.66 -1.3,-1.98 -2.18,-3.66667 -2.64,-5.06 2.45333,2.99333 4.72667,5.95 6.82,8.87 2.04667,2.84667 3.25667,6.04 3.63,9.58 l 0.09,5.56 c -0.0867,3.63333 -0.63,6.09 -1.63,7.37 -2.30667,2.96667 -3.50667,4.50667 -3.6,4.62 -0.64667,0.83333 -0.44,1.27 0.62,1.31 5.36,0.21 11.53,-0.33 15.69,-3.41 3.33333,-2.46667 6.13667,-5.45333 8.41,-8.96 1.16,-2.17333 1.78,-4.43333 1.86,-6.78 0.13333,-3.82 0.0333,-8.17 -0.3,-13.05 -0.0133,-0.2 0.08,-0.28667 0.28,-0.26 l 0.28,0.04 c 0.0867,0.0133 0.13667,0.0633 0.15,0.15 0.6,4.24 1.27,8.45 2.01,12.63 0.80667,4.51333 1.07,9.92333 0.79,16.23 l -1.46,7.79 c -2.48667,6.53333 -6.16333,12.36667 -11.03,17.5 l -16.11,13.22 c -0.54667,0.44667 -0.48667,0.78667 0.18,1.02 2.42,0.84 5.11667,1.25333 8.09,1.24 -2.00667,0.69333 -3.58333,1.09333 -4.73,1.2 -3.54,0.32667 -7.06667,0.76667 -10.58,1.32 -5.06,0.8 -11.42667,0.43 -19.1,-1.11 -0.62,-2.60667 -2.89667,-4.54 -6.83,-5.8 -3.98,-3.78667 -6.37,-8.24 -7.17,-13.36 -0.28667,-1.84 -0.19333,-5.5 0.28,-10.98 0.29333,-4.99333 1.53,-9.65333 3.71,-13.98 4.34667,-4.72667 7.92,-9.10667 10.72,-13.14 1.15333,-1.66 2.16,-3.76333 3.02,-6.31 1.4,-4.91 1,-9.09 0.5,-13.7 -0.0733,-0.68 0.0133,-0.7 0.26,-0.06 z"
       id="svg_1014"
       sodipodi:nodetypes="ccccccccccccccccccccccccccccccccccccccccccc" />
    <path
       fill="#f4831a"
       d="m 316.36,300.53 c -0.86,2.54667 -1.86667,4.65 -3.02,6.31 -2.8,4.03333 -6.37333,8.41333 -10.72,13.14 l -34.22,7.14 c -0.30667,0.0667 -0.41333,0.25 -0.32,0.55 l 1.94,6.41 -5.57,-11.94 c 0.22667,-3.22667 -0.0133,-6.44667 -0.72,-9.66 10.78667,-4.17333 21.77333,-7.70667 32.96,-10.6 6.42,-1.66 12.97667,-2.11 19.67,-1.35 z"
       id="svg_1017"
       sodipodi:nodetypes="cccccccccc" />
    <path
       fill="#fdb02f"
       d="m 336.35,310.25 c -1.88,4.19333 -3.99667,7.27333 -6.35,9.24 -0.82667,0.69333 -2.20667,0.77 -4.14,0.23 -0.35333,-0.0933 -0.56,-0.32 -0.62,-0.68 -0.12667,-0.74667 -0.42,-1.69 -0.88,-2.83 -0.20667,-0.5 -0.31667,-1.49667 -0.33,-2.99 -0.02,-2.57333 -0.08,-5.13 -0.18,-7.67 z"
       id="svg_1019"
       sodipodi:nodetypes="cccccccc" />
    <path
       fill="#f4831a"
       d="m 362.3,312.96 c -2.27333,3.50667 -5.07667,6.49333 -8.41,8.96 -4.16,3.08 -10.33,3.62 -15.69,3.41 -1.06,-0.04 -1.26667,-0.47667 -0.62,-1.31 0.0933,-0.11333 1.29333,-1.65333 3.6,-4.62 1,-1.28 1.54333,-3.73667 1.63,-7.37 l 0.07,-0.53 c 0.0467,-0.34667 0.24667,-0.50333 0.6,-0.47 0.0933,0.007 0.18667,0.0167 0.28,0.03 0.16667,0.02 0.31667,-0.0233 0.45,-0.13 1.44667,-1.16 2.81,-1.75333 4.09,-1.78 4.5,-0.08 9.16667,1.19 14,3.81 z"
       id="svg_1021"
       sodipodi:nodetypes="cccccccccccc" />
    <path
       fill="#f4831a"
       d="m 390.05,311.24 c -1.12667,8.05333 -3.80667,15.56333 -8.04,22.53 l -16.1,-4.06 1.46,-7.79 0.21,3.05 c 0.04,0.5 0.14667,0.51333 0.32,0.04 1.53,-4.14 1.45,-9.2 1.43,-13.85 0,-0.35333 0.17667,-0.54 0.53,-0.56 6.66,-0.41333 13.39,-0.2 20.19,0.64 z"
       id="svg_1022"
       sodipodi:nodetypes="ccccccccc" />
    <path
       fill="#fd9b21"
       d="m 302.62,319.98 c -2.18,4.32667 -3.41667,8.98667 -3.71,13.98 -1.73333,3.08 -3.88667,4.55 -6.46,4.41 -3.04667,-0.16667 -6.09333,-0.35667 -9.14,-0.57 -4.75,-0.32 -6.74,2.38 -5.73,6.83 l -7.56,-10.55 -1.94,-6.41 c -0.0933,-0.3 0.0133,-0.48333 0.32,-0.55 z"
       id="svg_1025"
       sodipodi:nodetypes="ccccccccc" />
    <path
       fill="#fd9b21"
       d="m 365.91,329.71 16.1,4.06 c -4.02,7.5 -9.25,13.89333 -15.69,19.18 -4.27333,-1.23333 -8.08667,-3.14667 -11.44,-5.74 4.86667,-5.13333 8.54333,-10.96667 11.03,-17.5 z"
       id="svg_1026"
       sodipodi:nodetypes="ccccc" />
    <path
       fill="#fdb02f"
       d="m 298.91,333.96 c -0.47333,5.48 -0.56667,9.14 -0.28,10.98 0.8,5.12 3.19,9.57333 7.17,13.36 0.51333,0.56667 1.11,1.12333 1.79,1.67 0.31333,0.26 0.48,0.51667 0.5,0.77 0.0267,0.27333 0.0433,0.54333 0.05,0.81 0.0133,0.38 -0.17,0.58 -0.55,0.6 l -1.33,0.07 c -12.02,-2.32667 -21.58,-8.19 -28.68,-17.59 -1.01,-4.45 0.98,-7.15 5.73,-6.83 3.04667,0.21333 6.09333,0.40333 9.14,0.57 2.57333,0.14 4.72667,-1.33 6.46,-4.41 z"
       id="svg_1028"
       sodipodi:nodetypes="ccccccsccccc" />
    <path
       fill="#fbc831"
       d="m 354.88,347.21 c 3.35333,2.59333 7.16667,4.50667 11.44,5.74 -5.64667,4.91333 -12.07333,8.16 -19.28,9.74 -2.97333,0.0133 -5.67,-0.4 -8.09,-1.24 -0.66667,-0.23333 -0.72667,-0.57333 -0.18,-1.02 z"
       id="svg_1036"
       sodipodi:nodetypes="cccccc" />
    <path
       fill="#f87010"
       d="m 771.16,381.91 c 0.52,2.11333 0.77,4.42333 0.75,6.93 -0.004,0.43592 -0.42186,0.7508 -0.85,0.64 -1.71333,-0.46667 -3.31667,-1.27667 -4.81,-2.43 -5.41,-4.17 -9.23,-7.64 -11.58,-13.78 -1.67333,-4.36 -2.82667,-8.61 -3.46,-12.75 -0.32667,-2.13333 -0.19,-4.10667 0.41,-5.92 0.14514,-0.4108 0.67798,-0.51176 0.95,-0.18 0.86667,1.04 4.71667,5.61667 11.55,13.73 3.45333,4.09333 5.8,8.68 7.04,13.76 z"
       id="svg_1037"
       sodipodi:nodetypes="cccccccccc" />
    <path
       fill="#fbc831"
       d="m 312.63,364.1 c -2.48667,-0.16 -4.61,-0.78667 -6.37,-1.88 l 1.33,-0.07 c 0.38,-0.02 0.56333,-0.22 0.55,-0.6 -0.007,-0.26667 -0.0233,-0.53667 -0.05,-0.81 -0.02,-0.25333 -0.18667,-0.51 -0.5,-0.77 -0.68,-0.54667 -1.27667,-1.10333 -1.79,-1.67 3.93333,1.26 6.21,3.19333 6.83,5.8 z"
       id="svg_1038"
       sodipodi:nodetypes="ccsccccc" />
    <path
       fill="#fbc831"
       d="m 784.41,503.88 c -7.20667,7.59333 -13.65667,13.80333 -19.35,18.63 -10.98,9.3 -24.55,16.22 -38.96,21.99 -0.32,0.12667 -0.47333,0.36 -0.46,0.7 l 0.12,2.5 -2.4,-6.99 c 2.10667,-2.46 4.23667,-4.78 6.39,-6.96 1.02,-1.03333 2.48667,-3.15333 4.4,-6.36 1.14667,-1.92 2.36333,-4.18 3.65,-6.78 3.82667,-7.73333 6.33667,-13.24667 7.53,-16.54 1.88,-5.17333 3.11,-10.86333 3.69,-17.07 0.64667,-6.92 0.84,-11.91333 0.58,-14.98 -0.16,-1.92667 -0.48667,-6.17333 -0.98,-12.74 -0.92,-12.17333 -4.63667,-23.62333 -11.15,-34.35 -2.04,-3.36 -5.01667,-7.90667 -8.93,-13.64 -6.56667,-9.63333 -12.89,-17.09667 -18.97,-22.39 -1.68,-1.46 -5.31,-3.92 -10.89,-7.38 -0.0733,-0.0467 -0.11,-0.11 -0.11,-0.19 -0.007,-0.18 0.0633,-0.28667 0.21,-0.32 0.0933,-0.02 0.18333,-0.0167 0.27,0.01 2.44,0.86667 4.97,1.64 7.59,2.32 2.71333,0.7 5.26,1.58667 7.64,2.66 10.39333,4.69333 19.24667,10.5 26.56,17.42 4.15333,3.92 8.31,8.46 12.47,13.62 5.25333,6.52 10.51333,14.08333 15.78,22.69 2.91333,4.75333 5.77333,10.65667 8.58,17.71 2.12667,5.36 3.77667,11.68667 4.95,18.98 1.46,9.11333 2.05667,18.26667 1.79,27.46 z"
       id="svg_1047"
       sodipodi:nodetypes="ccccccccccsccccccccccccccccc" />
    <path
       fill="#f4831a"
       d="m 797.91,413.03 c -4.64667,-0.85333 -9.13667,-0.16333 -13.47,2.07 -2.26,-3.97333 -3.7,-8.14333 -4.32,-12.51 -0.0785,-0.523 -0.0128,-1.05567 0.19,-1.54 l 2.51,-6.09 c 0.26,-0.63333 0.63333,-0.70667 1.12,-0.22 5.61333,5.61333 10.27,11.71 13.97,18.29 z"
       id="svg_1052"
       sodipodi:nodetypes="cccccsc" />
    <path
       fill="#fd9b21"
       d="m 797.91,413.03 c 4.14667,6.48 6.91333,11.82333 8.3,16.03 2.52667,7.68667 3.91333,11.90333 4.16,12.65 2.34667,7.08667 3.91667,13.96333 4.71,20.63 0.48667,4.12667 0.94333,8.44 1.37,12.94 1.49,15.68 1.08,31.31 -0.85,46.96 -6.09333,5.47333 -12.09333,11.07667 -18,16.81 -1.4,1.36 -2.37,2.75333 -2.91,4.18 -0.76667,2.02667 -1.44667,3.94333 -2.04,5.75 -0.74,2.24667 -1.94,4.87333 -3.6,7.88 -0.007,0.0133 -2.48,4.45667 -7.42,13.33 -2.54667,4.56667 -6.26,7.39667 -11.14,8.49 0.10667,-0.24 0.24,-0.38333 0.4,-0.43 1.44667,-1.06 2.76,-2.37 3.94,-3.93 1.55333,-2.06 3.04667,-4.19333 4.48,-6.4 2.6,-2.92667 4.96667,-6.02333 7.1,-9.29 1.77333,-2.72 3.46667,-6.2 5.08,-10.44 3.82,-10.01 6.47,-16.97 8.93,-26.55 1.02,-3.96667 1.77333,-8.07 2.26,-12.31 1.62,-14.05333 1.68333,-27.03333 0.19,-38.94 -0.53333,-4.27333 -1.69667,-9.30667 -3.49,-15.1 -4.22667,-13.69333 -9.20667,-27.09 -14.94,-40.19 4.33333,-2.23333 8.82333,-2.92333 13.47,-2.07 z"
       id="svg_1055"
       sodipodi:nodetypes="ccccccccccccccccccccccc" />
    <path
       fill="#f4831a"
       d="m 727.37,479.67 c -1.02667,1.92667 -2.61667,2.67 -4.77,2.23 -2.05333,-0.42667 -4.42,-1.07 -7.1,-1.93 -1.52,-0.48667 -2.65333,-0.68333 -3.4,-0.59 -1.59333,0.19333 -2.49333,1.14 -2.7,2.84 -0.84667,-10.18 -1.68667,-20.42333 -2.52,-30.73 -0.52,-6.44 -0.33,-12.75667 0.57,-18.95 0.0808,-0.58399 0.79702,-0.82075 1.21,-0.4 6.18667,6.19333 10.69667,13.25667 13.53,21.19 3.06667,8.59333 4.79333,17.37333 5.18,26.34 z"
       id="svg_1063"
       sodipodi:nodetypes="cccccccccc" />
    <path
       fill="#ffffff"
       d="m 625.26,470.6 c 0.21333,-0.36 0.40667,-0.61333 0.58,-0.76 0.3,-0.26 0.49,-0.19667 0.57,0.19 0.26667,1.23333 0.12,2.80667 -0.44,4.72 -2.72,9.31 -6.92,19.77 -13.91,26.01 -8.55,7.64 -21.19,13.02 -32.45,11.88 -8.92667,-0.9 -16.53667,-3.03667 -22.83,-6.41 -5.1,-2.73333 -8.81667,-6.01 -11.15,-9.83 -1.08,-1.77333 -1.54333,-4.34 -1.39,-7.7 0.02,-0.39333 0.18,-0.46333 0.48,-0.21 1.96,1.66 3.40333,2.72667 4.33,3.2 16.83,8.64 36.45,9.83 52.78,-0.62 8.42667,-5.4 15.99333,-11.84 22.7,-19.32 0.12,-0.12667 0.36333,-0.51 0.73,-1.15 z"
       id="svg_1070"
       sodipodi:nodetypes="cccccccccccccc" />
    <path
       fill="#f87010"
       d="m 727.37,479.67 c 0.86,6.69333 0.12333,12.94667 -2.21,18.76 -1.16,2.89333 -2.88,6.17333 -5.16,9.84 -1.2,-1.83333 -2.16333,-3.07667 -2.89,-3.73 -3.70667,-3.33333 -6.21,-7.42333 -7.51,-12.27 l -0.2,-10.05 c 0.20667,-1.7 1.10667,-2.64667 2.7,-2.84 0.74667,-0.0933 1.88,0.10333 3.4,0.59 2.68,0.86 5.04667,1.50333 7.1,1.93 2.15333,0.44 3.74333,-0.30333 4.77,-2.23 z"
       id="svg_1072"
       sodipodi:nodetypes="cccccccccc" />
    <path
       fill="#ed3a06"
       d="m 720,508.27 c -1.06667,2.16667 -2.73,3.76 -4.99,4.78 -1.15333,0.52 -2.18333,0.55 -3.09,0.09 -1.01333,-0.51333 -1.75667,-1.38333 -2.23,-2.61 -0.06,-0.15333 -0.17333,-0.26 -0.34,-0.32 -0.26,-0.1 -0.42333,-0.0133 -0.49,0.26 -0.04,0.18667 -0.12667,0.34333 -0.26,0.47 -0.45333,-1.22 -0.64667,-2.52333 -0.58,-3.91 0.29333,0.62 0.5,0.27667 0.62,-1.03 0.0467,-0.46 -0.007,-1.38333 -0.16,-2.77 -0.0333,-0.32667 0.03,-0.63667 0.19,-0.93 1.7,-3.17 1.23,-6.6 0.93,-10.03 1.3,4.84667 3.80333,8.93667 7.51,12.27 0.72667,0.65333 1.69,1.89667 2.89,3.73 z"
       id="svg_1074"
       sodipodi:nodetypes="ccccccccccccsc" />
    <path
       fill="#fdb02f"
       d="m 784.41,503.88 c -0.42,8.74667 -1.34333,17.37 -2.77,25.87 -0.31333,1.86667 -1.43667,5.75667 -3.37,11.67 -6.22667,6.31333 -12.05,11.52333 -17.47,15.63 -8.10667,6.12667 -17.71667,11.28 -28.83,15.46 -0.32667,0.12667 -0.51667,0.0167 -0.57,-0.33 l -1.74,-11.9 c -0.0333,-0.24 -0.16667,-0.32667 -0.4,-0.26 -0.15333,0.04 -0.23667,0.11667 -0.25,0.23 -0.1,0.64 -0.23667,1.99 -0.41,4.05 -0.39333,-5.62667 -1.34,-11.16 -2.84,-16.6 l -0.12,-2.5 c -0.0133,-0.34 0.14,-0.57333 0.46,-0.7 14.41,-5.77 27.98,-12.69 38.96,-21.99 5.69333,-4.82667 12.14333,-11.03667 19.35,-18.63 z"
       id="svg_1076"
       sodipodi:nodetypes="csccccccccccccc" />
    <path
       fill="#f4831a"
       d="m 815.6,522.24 c -2.92,19.38 -7.32667,38.48333 -13.22,57.31 -2.13333,-0.88 -3.96333,-1.23333 -5.49,-1.06 -2.28,0.25333 -5.27,1.06333 -8.97,2.43 -6.64,2.44 -12.92667,1.74667 -18.86,-2.08 0.39333,0.0867 0.87,0.0333 1.43,-0.16 4.88,-1.09333 8.59333,-3.92333 11.14,-8.49 4.94,-8.87333 7.41333,-13.31667 7.42,-13.33 1.66,-3.00667 2.86,-5.63333 3.6,-7.88 0.59333,-1.80667 1.27333,-3.72333 2.04,-5.75 0.54,-1.42667 1.51,-2.82 2.91,-4.18 5.90667,-5.73333 11.90667,-11.33667 18,-16.81 z"
       id="svg_1083"
       sodipodi:nodetypes="cccccccccccc" />
    <path
       fill="#171b1d"
       d="m 655.55,570.43 -1.62,1.31 c -5.34667,4.83333 -11.6,7.97667 -18.76,9.43 -0.78,0.14 -1.59667,0.29333 -2.45,0.46 -1.89,0.36 -3.53,-0.16 -4.8,-1.28 -1.83,-1.64 0.34,-6.42 1.37,-8.04 6.55333,-10.32 11.21667,-17.9 13.99,-22.74 1.51333,-2.64 2.66,-5.42667 3.44,-8.36 0.10175,-0.36445 0.58053,-0.44824 0.8,-0.14 1.61333,2.22667 2.91,4.49333 3.89,6.8 0.54667,1.3 1.11667,3.78667 1.71,7.46 0.80667,5.04667 1.61667,10.08 2.43,15.1 z"
       id="svg_1087"
       sodipodi:nodetypes="cccccccccccc" />
    <path
       fill="#fd9b21"
       d="m 778.27,541.42 -0.77,3.78 -1.17,4.6 -2.11,6.89 -4.82,12.45 c -0.11133,0.30147 -0.30087,0.57027 -0.55,0.78 l -25.1,21.38 c -3.05333,-1.16 -6.18,-2.29333 -9.38,-3.4 -2.07333,-0.72 -3.33,-2.43333 -3.77,-5.14 -0.32,-1.96667 -0.49,-3.94667 -0.51,-5.94 -0.04,-3.84 -1.15,-8.32 -1.49,-12.52 0.17333,-2.06 0.31,-3.41 0.41,-4.05 0.0133,-0.11333 0.0967,-0.19 0.25,-0.23 0.23333,-0.0667 0.36667,0.02 0.4,0.26 l 1.74,11.9 c 0.0533,0.34667 0.24333,0.45667 0.57,0.33 11.11333,-4.18 20.72333,-9.33333 28.83,-15.46 5.42,-4.10667 11.24333,-9.31667 17.47,-15.63 z"
       id="svg_1088"
       sodipodi:nodetypes="cccccccccccccccccc" />
    <path
       fill="#564331"
       d="m 777.5,545.2 c -0.27333,5.42 -0.98333,10.79 -2.13,16.11 -0.28,1.28 -0.37333,3.24333 -0.28,5.89 0.0133,0.34 0.18667,0.55 0.52,0.63 1.15333,0.26667 2.38667,0.29667 3.7,0.09 -1.43333,2.20667 -2.92667,4.34 -4.48,6.4 -1.18,1.56 -2.49333,2.87 -3.94,3.93 -0.55333,-0.0133 -0.92333,-0.18333 -1.11,-0.51 -0.14,-0.23333 -0.13333,-0.57333 0.02,-1.02 0.60667,-1.74 1.21667,-3.48333 1.83,-5.23 0.5,-1.42 0.97,-3.2 1.41,-5.34 1.12667,-5.43333 2.22333,-10.88333 3.29,-16.35 z"
       id="svg_1089"
       sodipodi:nodetypes="ccccccccccccc" />
    <path
       fill="#ed3a06"
       d="m 776.33,549.8 c -1.06667,5.46667 -2.16333,10.91667 -3.29,16.35 -0.44,2.14 -0.91,3.92 -1.41,5.34 -0.61333,1.74667 -1.22333,3.49 -1.83,5.23 -0.15333,0.44667 -0.16,0.78667 -0.02,1.02 0.18667,0.32667 0.55667,0.49667 1.11,0.51 -0.16,0.0467 -0.29333,0.19 -0.4,0.43 -0.56,0.19333 -1.03667,0.24667 -1.43,0.16 0.12667,-2.68 0.57667,-5.38667 1.35,-8.12 1.32,-4.66 2.59,-9.33667 3.81,-14.03 z"
       id="svg_1091"
       sodipodi:nodetypes="ccccccccccc" />
    <path
       fill="#fdb02f"
       d="m 667.99,607.86 c 0.19333,3.87333 -0.65,7.61 -2.53,11.21 -1.01333,1.94667 -2.8,4.04667 -5.36,6.3 -4.4,3.88667 -7.35,6.59333 -8.85,8.12 -12.02,12.32 -19.55,20.79 -33.86,24.52 -10.73,2.8 -21.84,3.02 -34.78,3.03 -16.22667,0.0133 -31.64,-0.85667 -46.24,-2.61 -13.19333,-1.58 -25.6,-4.78 -37.22,-9.6 -10.09333,-4.18667 -20.5,-9.12667 -31.22,-14.82 -3.52,-1.87333 -11.35,-6.41333 -23.49,-13.62 -4.36,-2.59333 -11.18333,-5.89333 -20.47,-9.9 -2.36667,-9.65333 -3.00667,-19.38 -1.92,-29.18 0.67333,-6.12 1.87667,-11.06 3.61,-14.82 2.11333,-4.58667 4.92667,-8.92667 8.44,-13.02 0.68,-0.78667 1.05333,-0.66 1.12,0.38 0.13333,2.08 0.0633,4.67667 -0.21,7.79 -0.27333,3.18667 -0.15667,5.77333 0.35,7.76 1.7,6.58 4.06333,11.97333 7.09,16.18 4.9,6.80667 10.61333,13.14333 17.14,19.01 2.06,1.84667 5.54667,4.39 10.46,7.63 8.05333,5.30667 13.64333,8.88 16.77,10.72 4.76667,2.8 10.17333,5.31667 16.22,7.55 9.19333,3.40667 17.57667,6.45333 25.15,9.14 5.47333,1.94 12.34667,3.62667 20.62,5.06 10.21333,1.76667 20.44667,2.97 30.7,3.61 4.22667,0.26667 8.97667,0.16667 14.25,-0.3 6.12,-0.54 14.55,-1.88333 25.29,-4.03 10.32667,-2.07333 19.99,-6.05 28.99,-11.93 6.02,-3.94 11.18333,-8.85333 15.49,-14.74 1.81333,-2.48 3.3,-5.62667 4.46,-9.44 z"
       id="svg_1094"
       sodipodi:nodetypes="cccccccsccccccsccccccccccccccc" />
    <path
       fill="#f4831a"
       d="m 358.58,554.95 c 1.92667,2.89333 4.74667,6.49333 8.46,10.8 3.5,4.06 4.59,10.8 -1.91,12.63 -5.81333,1.62667 -10.21667,-0.1 -13.21,-5.18 -2.59,-4.4 3.27,-14.12 5.89,-18.25 0.18157,-0.27767 0.58843,-0.27767 0.77,0 z"
       id="svg_1095"
       sodipodi:nodetypes="cccccc" />
    <path
       fill="#f87010"
       d="m 774.22,556.69 c -1.22,4.69333 -2.49,9.37 -3.81,14.03 -0.77333,2.73333 -1.22333,5.44 -1.35,8.12 5.93333,3.82667 12.22,4.52 18.86,2.08 3.7,-1.36667 6.69,-2.17667 8.97,-2.43 1.52667,-0.17333 3.35667,0.18 5.49,1.06 l -7.86,21.7 c -12.48,-1.7 -25.02,-2.64667 -37.62,-2.84 l -13.15,-7.11 25.1,-21.38 c 0.24913,-0.20973 0.43867,-0.47853 0.55,-0.78 z"
       id="svg_1096"
       sodipodi:nodetypes="cccccccccccc" />
    <path
       fill="#fdb02f"
       d="m 655.55,570.43 10.25,20.33 c -1.36,3.04667 -3.71667,4.21 -7.07,3.49 -8.90667,-1.9 -17.09667,-2.97333 -24.57,-3.22 -2.52,-0.0867 -5.08667,0.13333 -7.7,0.66 0.93333,-0.43333 1.85333,-0.84667 2.76,-1.24 0.96,-0.41333 1.84,-0.90333 2.64,-1.47 1.88,-1.33333 3.76333,-2.65 5.65,-3.95 1.26,-0.98667 2.47333,-2.03333 3.64,-3.14 0.91333,-0.86667 2.70667,-1.73667 5.38,-2.61 1.06667,-0.34667 3.02667,-1.71 5.88,-4.09 1.02,-0.84667 1.52667,-1.99667 1.52,-3.45 z"
       id="svg_1098"
       sodipodi:nodetypes="ccccccccccccc" />
    <path
       fill="#fffec5"
       d="m 653.93,571.74 c 0.007,1.45333 -0.5,2.60333 -1.52,3.45 -2.85333,2.38 -4.81333,3.74333 -5.88,4.09 -2.67333,0.87333 -4.46667,1.74333 -5.38,2.61 -1.16667,1.10667 -2.38,2.15333 -3.64,3.14 -0.15333,-1.5 -0.93333,-2.78667 -2.34,-3.86 7.16,-1.45333 13.41333,-4.59667 18.76,-9.43 z"
       id="svg_1099"
       sodipodi:nodetypes="ccccccc" />
    <path
       fill="#fd9b21"
       d="m 665.8,590.76 c 2.15333,3.56 4.15333,7.21333 6,10.96 0.72667,1.47333 1.53667,2.87667 2.43,4.21 2.57,3.85 5.21,6.95 5.5,11.99 0.14,2.3 0.39333,6.1 0.76,11.4 0.18,2.59 0.88,5.17 1.31,7.67 0.15,0.85994 -0.48317,1.66072 -1.36,1.72 -6.7,0.41333 -11.50667,3.62 -14.42,9.62 -1.81333,3.73333 -1.35333,7.6 1.38,11.6 1.26667,4.06 1.72333,8.08 1.37,12.06 -6.26667,3.56 -12.53667,7.07667 -18.81,10.55 -5.66667,3.14 -10.69,5.62 -15.07,7.44 -6.5,2.7 -11.82667,4.49333 -15.98,5.38 -11,2.36 -18.30333,3.66333 -21.91,3.91 -5.24,0.36 -10.47333,0.76667 -15.7,1.22 -5.6,0.5 -10.81,0.4 -16.26,0.26 l -11.09,-1.05 c -11.73333,-1.46667 -20.22667,-2.84 -25.48,-4.12 -8.77333,-2.13333 -18.04,-4.67 -27.8,-7.61 -1.92,-0.57333 -5.53667,-2.02 -10.85,-4.34 -3.24,-1.41333 -6.72333,-3.26 -10.45,-5.54 -6.24667,-3.82 -9.75,-5.96667 -10.51,-6.44 -2.5,-1.53333 -6.05333,-4.41333 -10.66,-8.64 -4.4,-4.04 -7.7,-7.2 -9.9,-9.48 -11.67333,-12.12 -19.78333,-26.46667 -24.33,-43.04 9.28667,4.00667 16.11,7.30667 20.47,9.9 12.14,7.20667 19.97,11.74667 23.49,13.62 10.72,5.69333 21.12667,10.63333 31.22,14.82 11.62,4.82 24.02667,8.02 37.22,9.6 14.6,1.75333 30.01333,2.62333 46.24,2.61 12.94,-0.01 24.05,-0.23 34.78,-3.03 14.31,-3.73 21.84,-12.2 33.86,-24.52 1.5,-1.52667 4.45,-4.23333 8.85,-8.12 2.56,-2.25333 4.34667,-4.35333 5.36,-6.3 1.88,-3.6 2.72333,-7.33667 2.53,-11.21 -3.62667,-0.56667 -6.42,-0.4 -8.38,0.5 -9.9,4.54 -18.46,8.74 -29.86,12.84 -5.12667,1.84 -9.99667,3.19667 -14.61,4.07 -9.31333,1.75333 -16.86,2.61 -22.64,2.57 -2.52,-0.0133 -7.02333,-0.48 -13.51,-1.4 -5.40667,-0.76667 -9.8,-1.81 -13.18,-3.13 -6.12667,-2.4 -12.14333,-5.59667 -18.05,-9.59 -3.26667,-2.20667 -6.23,-5.18667 -8.89,-8.94 -2.56,-3.60667 -4.67333,-7.25667 -6.34,-10.95 -0.16078,-0.35056 0.1277,-0.74086 0.51,-0.69 1.04,0.13333 1.91333,0.47333 2.62,1.02 4.15333,3.2 7.57333,5.44 10.26,6.72 3.09333,1.48 7.05333,2.6 11.88,3.36 9.14,1.44 18.19667,1.42667 27.17,-0.04 2.68,-0.44 6.20667,-1.34 10.58,-2.7 4.88667,-1.52 8.37,-2.57667 10.45,-3.17 0.86667,-0.24667 1.60667,-0.38333 2.22,-0.41 2.04667,-0.51333 4.08,-1.01667 6.1,-1.51 1.99333,-0.48667 3.97,-1.16667 5.93,-2.04 2.08,-0.92667 4.15,-1.82 6.21,-2.68 2.61333,-0.52667 5.18,-0.74667 7.7,-0.66 7.47333,0.24667 15.66333,1.32 24.57,3.22 3.35333,0.72 5.71,-0.44333 7.07,-3.49 z"
       id="svg_1100"
       sodipodi:nodetypes="cccccccccccccccccccccccccccscccccccccccsccccccccccccsscccc" />
    <path
       fill="#fe5512"
       d="m 794.52,601.25 c -3.02667,7.22667 -5.92667,13.16333 -8.7,17.81 -4.06667,6.81333 -8.09,13.66 -12.07,20.54 -3.78,6.54667 -6.64667,11.01 -8.6,13.39 -3.25333,3.96 -5.44333,6.75333 -6.57,8.38 -1.56667,2.25333 -3.88333,4.92333 -6.95,8.01 -3.12667,3.13333 -7.75333,7.96333 -13.88,14.49 -5.57333,5.93333 -10.34333,10.57667 -14.31,13.93 -13.62,11.5 -27.78333,21.69667 -42.49,30.59 -3.39333,2.05333 -7.62333,4.3 -12.69,6.74 -6.24667,3.00667 -10.6,5.02667 -13.06,6.06 -5.45333,2.28 -11.36667,4.95667 -17.74,8.03 -3.67,1.77 -9.35,2.69 -13.31,3.99 -5.87,1.91 -11.49,4.07 -17.22,5.01 -3.51333,0.58 -7.80667,1.47 -12.88,2.67 -6,1.42 -12.34,2.01 -19.37,2.75 -2.44,0.25333 -5.05667,0.40333 -7.85,0.45 -14.20667,0.22667 -23.56667,0.21333 -28.08,-0.04 -8.14,-0.44667 -13.45333,-0.67 -15.94,-0.67 -1.12,0 -2.71,-0.7 -4.1,-0.76 -9.12667,-0.37333 -17.46667,-1.30333 -25.02,-2.79 -4.75333,-0.93333 -7.45,-1.45667 -8.09,-1.57 -2.93333,-0.51333 -5.61333,-1.12333 -8.04,-1.83 -5.11333,-1.48667 -9.11333,-2.59333 -12,-3.32 -3.79333,-0.95333 -7.70333,-2.27667 -11.73,-3.97 -14.84667,-6.23333 -23.71,-10.09333 -26.59,-11.58 -5.92,-3.04667 -12.85,-6.88333 -20.79,-11.51 -6.59333,-3.84667 -12.54,-7.80333 -17.84,-11.87 -10.03333,-7.69333 -17.48667,-13.69667 -22.36,-18.01 -11.26667,-9.95333 -21.89667,-21.94667 -31.89,-35.98 -2.16,-3.03333 -4.15,-6.61333 -5.97,-10.74 -0.42667,-0.96667 -0.60333,-1.56 -0.53,-1.78 0.26667,-0.86667 1.13,-0.5 2.59,1.1 1.53333,1.67333 3.30333,3.67 5.31,5.99 8.52667,9.84667 17.58667,18.64 27.18,26.38 3.14667,2.54 6.58333,4.95667 10.31,7.25 3.31,2.04 9.25,6.13 14.53,8.47 6.82,3.02667 13.89333,5.32333 21.22,6.89 15.06667,3.22 30.23,4.97 45.49,5.25 3.08667,-6.16 1.78667,-10.45 -3.9,-12.87 -1.6,-0.68667 -3.05,-1.25667 -4.35,-1.71 -1.08667,-0.38667 -2.49,-1.03 -4.21,-1.93 -1.94667,-1.01333 -4.05,-1.66667 -6.31,-1.96 l -2.67,-0.86 c 5.69333,0.53333 11.35,1.32 16.97,2.36 3.94,0.72667 7.85,2.11333 11.73,4.16 5.99,3.16 10.03,8.67 11.05,14.96 0.86667,5.37333 1.64667,10.05333 2.34,14.04 1.95,11.13 9.29,17.1 19.3,22.75 2.1,1.18667 4.31667,1.86667 6.65,2.04 9.98,0.75 20.23,0.01 29.91,-0.95 3.38667,-0.34 7.06667,-0.99 11.04,-1.95 3.59333,-0.86667 7.22667,-1.8 10.9,-2.8 2.44667,-0.5 4.31333,-0.99 5.6,-1.47 5.64667,-2.09333 12.17,-4.85333 19.57,-8.28 2.85333,-1.32 5.77333,-3.45667 8.76,-6.41 2.48,-2.45333 3.86,-5.15 4.14,-8.09 0.0267,-0.36 -0.12667,-0.59667 -0.46,-0.71 l -12.09,-4.12 c 0.46667,-0.30667 0.80667,-0.62667 1.02,-0.96 0.20667,-0.31333 0.24667,-0.74 0.12,-1.28 -1.00667,-4.20667 -2.83,-7.32667 -5.47,-9.36 -1.66,-1.28 -4.3,-2.13333 -7.92,-2.56 l -1.17,-0.29 c 5.45,0.14 10.66,0.24 16.26,-0.26 5.22667,-0.45333 10.46,-0.86 15.7,-1.22 3.60667,-0.24667 10.91,-1.55 21.91,-3.91 4.15333,-0.88667 9.48,-2.68 15.98,-5.38 4.38,-1.82 9.40333,-4.3 15.07,-7.44 6.27333,-3.47333 12.54333,-6.99 18.81,-10.55 l 5.5,-3.49 c 7.63333,5.89333 15.98333,10.54 25.05,13.94 3.18667,1.19333 6.33333,1.80333 9.44,1.83 7.38667,0.06 14.22333,-1.67333 20.51,-5.2 0.28667,-0.16 0.59667,-0.22667 0.93,-0.2 5.10667,0.37333 9.40667,-1.22333 12.9,-4.79 0.69333,-0.70667 1.66667,-1.78333 2.92,-3.23 1.06667,-1.22667 1.91333,-2.39 2.54,-3.49 1.50667,-2.63333 3.10667,-6.36667 4.8,-11.2 2.08,-5.94667 2.33333,-12.04333 0.76,-18.29 -0.11634,-0.45703 0.14828,-0.92452 0.6,-1.06 4.46,-1.29333 8.51,-3.09 12.15,-5.39 2.84,-1.8 5.19667,-4.62333 7.07,-8.47 1.9,-3.91333 1.72667,-7.8 -0.52,-11.66 -3.62,-6.23 -9.21,-9.6 -16.52,-12.88 12.6,0.19333 25.14,1.14 37.62,2.84 z"
       id="svg_1107"
       sodipodi:nodetypes="csccccccccccccccccsccccccccccscccccccccccccccccccccccccccccccccccccccccccccccccccccccc" />
    <path
       fill="#fd9b21"
       d="m 411.34,646.85 c -14.56667,-0.36667 -29.15667,-1.48 -43.77,-3.34 -2.26,-5.2 -3.42333,-10.61 -3.49,-16.23 -0.04,-3.55333 0.59,-7.19333 1.89,-10.92 1.65333,-4.71333 3.43667,-9.35667 5.35,-13.93 0.55333,-1.32 0.97667,-1.28 1.27,0.12 0.46667,2.18 1.28333,5.25667 2.45,9.23 2.10667,7.13333 5.87,13.34667 11.29,18.64 7.22667,7.05333 15.56333,12.53 25.01,16.43 z"
       id="svg_1108"
       sodipodi:nodetypes="ccccccccc" />
    <path
       fill="#f4831a"
       d="m 411.34,646.85 c 3.72667,1.48 6.90667,3.82 9.54,7.02 2.27333,2.76 4.62,5.57333 7.04,8.44 -9.05333,-2.22 -17.87667,-3.14 -26.47,-2.76 -6.72,0.3 -14.07333,1.06667 -22.06,2.3 -4.82,-5.52 -8.76,-11.63333 -11.82,-18.34 14.61333,1.86 29.20333,2.97333 43.77,3.34 z"
       id="svg_1119"
       sodipodi:nodetypes="ccccccc" />
    <path
       fill="#f87010"
       d="m 427.92,662.31 c 7.2,8.28 15.35333,15.51 24.46,21.69 2.16667,1.47333 5.41333,3.42667 9.74,5.86 3.95,2.22 8.84,5.24 13.3,7.3 9.04667,4.18 15.88333,7.06 20.51,8.64 5.09333,1.74 10.69333,3.09667 16.8,4.07 6.25333,1 12.51667,1.7 18.79,2.1 3.01333,0.18667 6.00667,0.34 8.98,0.46 1.94667,0.08 4.04,-0.0433 6.28,-0.37 l -8.04,1.18 c -0.31333,0.0467 -0.44333,0.22333 -0.39,0.53 0.92,5.35333 1.92333,9.6 3.01,12.74 2.18,6.28667 6.04,12.21 11.58,17.77 -3.67333,1 -7.30667,1.93333 -10.9,2.8 -3.97333,0.96 -7.65333,1.61 -11.04,1.95 -9.68,0.96 -19.93,1.7 -29.91,0.95 -2.33333,-0.17333 -4.55,-0.85333 -6.65,-2.04 -10.01,-5.65 -17.35,-11.62 -19.3,-22.75 -0.69333,-3.98667 -1.47333,-8.66667 -2.34,-14.04 -1.02,-6.29 -5.06,-11.8 -11.05,-14.96 -3.88,-2.04667 -7.79,-3.43333 -11.73,-4.16 -5.62,-1.04 -11.27667,-1.82667 -16.97,-2.36 -10.96667,-3.36 -18.74667,-5.65333 -23.34,-6.88 -6.84,-1.82 -12.91333,-4.82333 -18.22,-9.01 -4.25333,-3.36667 -8.28667,-7.34333 -12.1,-11.93 7.98667,-1.23333 15.34,-2 22.06,-2.3 8.59333,-0.38 17.41667,0.54 26.47,2.76 z"
       id="svg_1120"
       sodipodi:nodetypes="ccccccccccccccccccccccccccc" />
    <path
       fill="#f87010"
       d="m 667.4,659.93 c 1.9,3.20667 4.19,6.06333 6.87,8.57 l -5.5,3.49 c 0.35333,-3.98 -0.10333,-8 -1.37,-12.06 z"
       id="svg_1122"
       sodipodi:nodetypes="cccc" />
    <path
       fill="#ed3a06"
       d="m 454.49,709 c -0.31333,-4.99333 -2.48333,-8.82 -6.51,-11.48 -4.53333,-2.99333 -8.62,-5.32333 -12.26,-6.99 2.26,0.29333 4.36333,0.94667 6.31,1.96 1.72,0.9 3.12333,1.54333 4.21,1.93 1.3,0.45333 2.75,1.02333 4.35,1.71 5.68667,2.42 6.98667,6.71 3.9,12.87 z"
       id="svg_1131"
       sodipodi:nodetypes="ccccccc" />
    <path
       fill="#564331"
       d="m 565.04,700.75 1.17,0.29 c 2.3,1.28 4.43667,2.81333 6.41,4.6 1.11333,1.00667 1.64333,1.88667 1.59,2.64 -0.0867,1.15333 -0.60667,2.15333 -1.56,3 -0.24667,0.22 -0.53667,0.33333 -0.87,0.34 l -11.98,0.23 -13.02,0.21 c -2.24,0.32667 -4.33333,0.45 -6.28,0.37 -2.97333,-0.12 -5.96667,-0.27333 -8.98,-0.46 3.25333,0.0933 6.46667,-0.0133 9.64,-0.32 1.45333,-0.14 2.62,-0.49333 3.5,-1.06 1.33,-0.85 2.99,-0.94 4.58,-1.91 2.51,-1.53 6.15,-4.05 6.46,-7.21 0.0933,-0.98667 -0.49,-1.57667 -1.75,-1.77 z"
       id="svg_1139"
       sodipodi:nodetypes="cccccccccccccccc" />
    <path
       fill="#ed3a06"
       d="m 578.46,715.2 c -1.88,-1.51333 -4.18333,-2.37333 -6.91,-2.58 -3.92,-0.28667 -7.83667,-0.54333 -11.75,-0.77 l 11.98,-0.23 c 0.33333,-0.007 0.62333,-0.12 0.87,-0.34 0.95333,-0.84667 1.47333,-1.84667 1.56,-3 0.0533,-0.75333 -0.47667,-1.63333 -1.59,-2.64 -1.97333,-1.78667 -4.11,-3.32 -6.41,-4.6 3.62,0.42667 6.26,1.28 7.92,2.56 2.64,2.03333 4.46333,5.15333 5.47,9.36 0.12667,0.54 0.0867,0.96667 -0.12,1.28 -0.21333,0.33333 -0.55333,0.65333 -1.02,0.96 z"
       id="svg_1140"
       sodipodi:nodetypes="cccccccccccc" />
    <path
       fill="#f4831a"
       d="m 559.8,711.85 c 3.91333,0.22667 7.83,0.48333 11.75,0.77 2.72667,0.20667 5.03,1.06667 6.91,2.58 l 12.09,4.12 c 0.33333,0.11333 0.48667,0.35 0.46,0.71 -0.28,2.94 -1.66,5.63667 -4.14,8.09 -2.98667,2.95333 -5.90667,5.09 -8.76,6.41 -7.4,3.42667 -13.92333,6.18667 -19.57,8.28 -1.28667,0.48 -3.15333,0.97 -5.6,1.47 -5.54,-5.56 -9.4,-11.48333 -11.58,-17.77 -1.08667,-3.14 -2.09,-7.38667 -3.01,-12.74 -0.0533,-0.30667 0.0767,-0.48333 0.39,-0.53 l 8.04,-1.18 z m 22.48,5.2 c -3.74,-1.49 -7.41,-3.28 -10.39,-3.73 -7.41333,-1.12667 -14.68667,-1.44333 -21.82,-0.95 -0.0609,0.0186 -0.0674,0.10231 -0.01,0.13 7.66,1.86667 16.66333,4.32667 27.01,7.38 2.04,0.6 5.71,1.19 8.13,0.84 0.70598,-0.1051 0.98405,-0.97482 0.47,-1.47 -1.00667,-0.96 -2.13667,-1.69333 -3.39,-2.2 z"
       id="svg_1143"
       sodipodi:nodetypes="cccccccccccccccccccccc" />
    <path
       fill="#fd9b21"
       d="m 582.28,717.05 c 1.25333,0.50667 2.38333,1.24 3.39,2.2 0.51405,0.49518 0.23598,1.3649 -0.47,1.47 -2.42,0.35 -6.09,-0.24 -8.13,-0.84 -10.34667,-3.05333 -19.35,-5.51333 -27.01,-7.38 -0.0574,-0.0277 -0.0509,-0.11141 0.01,-0.13 7.13333,-0.49333 14.40667,-0.17667 21.82,0.95 2.98,0.45 6.65,2.24 10.39,3.73 z"
       id="svg_1144"
       sodipodi:nodetypes="cccccccc" />
  </g>
</svg>
